STARTFONT 2.1
COMMENT
COMMENT Converted from OpenType font "intelone-mono-font-family-regular.otf" by "otf2bdf 3.0".
COMMENT
FONT -FreeType-IntelOne Mono-Medium-R-Normal--8-60-100-100-P-41-ISO10646-1
SIZE 6 100 100
FONTBOUNDINGBOX 8 13 -2 -3
STARTPROPERTIES 19
FOUNDRY "FreeType"
FAMILY_NAME "IntelOne Mono"
WEIGHT_NAME "Medium"
SLANT "R"
SETWIDTH_NAME "Normal"
ADD_STYLE_NAME ""
PIXEL_SIZE 8
POINT_SIZE 60
RESOLUTION_X 100
RESOLUTION_Y 100
SPACING "P"
AVERAGE_WIDTH 41
CHARSET_REGISTRY "ISO10646"
CHARSET_ENCODING "1"
FONT_ASCENT 8
FONT_DESCENT 2
COPYRIGHT "(C) 2023 Intel Corporation"
_OTF_FONTFILE "intelone-mono-font-family-regular.otf"
_OTF_PSNAME "IntelOneMono-Regular"
ENDPROPERTIES
CHARS 622
STARTCHAR 0020
ENCODING 32
SWIDTH 600 0
DWIDTH 5 0
BBX 0 0 0 0
BITMAP
ENDCHAR
STARTCHAR 0021
ENCODING 33
SWIDTH 600 0
DWIDTH 5 0
BBX 1 6 2 0
BITMAP
80
80
80
80
00
80
ENDCHAR
STARTCHAR 0022
ENCODING 34
SWIDTH 600 0
DWIDTH 5 0
BBX 3 3 1 3
BITMAP
A0
A0
A0
ENDCHAR
STARTCHAR 0023
ENCODING 35
SWIDTH 600 0
DWIDTH 5 0
BBX 5 6 0 0
BITMAP
50
58
70
50
F8
60
ENDCHAR
STARTCHAR 0024
ENCODING 36
SWIDTH 600 0
DWIDTH 5 0
BBX 3 8 1 -1
BITMAP
40
60
C0
C0
60
60
E0
40
ENDCHAR
STARTCHAR 0025
ENCODING 37
SWIDTH 600 0
DWIDTH 5 0
BBX 5 6 0 0
BITMAP
E8
B0
A0
78
68
B8
ENDCHAR
STARTCHAR 0026
ENCODING 38
SWIDTH 600 0
DWIDTH 5 0
BBX 5 6 0 0
BITMAP
30
40
20
70
90
68
ENDCHAR
STARTCHAR 0027
ENCODING 39
SWIDTH 600 0
DWIDTH 5 0
BBX 1 3 2 3
BITMAP
80
80
80
ENDCHAR
STARTCHAR 0028
ENCODING 40
SWIDTH 600 0
DWIDTH 5 0
BBX 3 8 1 -1
BITMAP
20
40
80
80
80
80
40
20
ENDCHAR
STARTCHAR 0029
ENCODING 41
SWIDTH 600 0
DWIDTH 5 0
BBX 3 8 1 -1
BITMAP
80
40
20
20
20
20
40
80
ENDCHAR
STARTCHAR 002A
ENCODING 42
SWIDTH 600 0
DWIDTH 5 0
BBX 4 4 1 1
BITMAP
40
F0
C0
A0
ENDCHAR
STARTCHAR 002B
ENCODING 43
SWIDTH 600 0
DWIDTH 5 0
BBX 4 4 1 1
BITMAP
40
40
F0
40
ENDCHAR
STARTCHAR 002C
ENCODING 44
SWIDTH 600 0
DWIDTH 5 0
BBX 1 2 2 -1
BITMAP
80
80
ENDCHAR
STARTCHAR 002D
ENCODING 45
SWIDTH 600 0
DWIDTH 5 0
BBX 3 1 1 2
BITMAP
E0
ENDCHAR
STARTCHAR 002E
ENCODING 46
SWIDTH 600 0
DWIDTH 5 0
BBX 1 1 2 0
BITMAP
80
ENDCHAR
STARTCHAR 002F
ENCODING 47
SWIDTH 600 0
DWIDTH 5 0
BBX 4 7 0 -1
BITMAP
10
10
20
20
40
40
80
ENDCHAR
STARTCHAR 0030
ENCODING 48
SWIDTH 600 0
DWIDTH 5 0
BBX 4 6 1 0
BITMAP
E0
A0
B0
D0
A0
E0
ENDCHAR
STARTCHAR 0031
ENCODING 49
SWIDTH 600 0
DWIDTH 5 0
BBX 3 6 1 0
BITMAP
40
C0
40
40
40
E0
ENDCHAR
STARTCHAR 0032
ENCODING 50
SWIDTH 600 0
DWIDTH 5 0
BBX 4 6 1 0
BITMAP
E0
20
20
40
80
F0
ENDCHAR
STARTCHAR 0033
ENCODING 51
SWIDTH 600 0
DWIDTH 5 0
BBX 3 6 1 0
BITMAP
E0
40
40
20
20
E0
ENDCHAR
STARTCHAR 0034
ENCODING 52
SWIDTH 600 0
DWIDTH 5 0
BBX 5 6 0 0
BITMAP
10
30
50
90
F8
10
ENDCHAR
STARTCHAR 0035
ENCODING 53
SWIDTH 600 0
DWIDTH 5 0
BBX 3 6 1 0
BITMAP
E0
80
E0
20
20
C0
ENDCHAR
STARTCHAR 0036
ENCODING 54
SWIDTH 600 0
DWIDTH 5 0
BBX 3 6 1 0
BITMAP
40
80
E0
A0
A0
E0
ENDCHAR
STARTCHAR 0037
ENCODING 55
SWIDTH 600 0
DWIDTH 5 0
BBX 4 6 0 0
BITMAP
F0
10
10
20
20
40
ENDCHAR
STARTCHAR 0038
ENCODING 56
SWIDTH 600 0
DWIDTH 5 0
BBX 3 6 1 0
BITMAP
E0
A0
E0
A0
A0
E0
ENDCHAR
STARTCHAR 0039
ENCODING 57
SWIDTH 600 0
DWIDTH 5 0
BBX 3 6 1 0
BITMAP
E0
A0
A0
E0
20
40
ENDCHAR
STARTCHAR 003A
ENCODING 58
SWIDTH 600 0
DWIDTH 5 0
BBX 1 4 2 0
BITMAP
80
00
00
80
ENDCHAR
STARTCHAR 003B
ENCODING 59
SWIDTH 600 0
DWIDTH 5 0
BBX 1 5 2 -1
BITMAP
80
00
00
80
80
ENDCHAR
STARTCHAR 003C
ENCODING 60
SWIDTH 600 0
DWIDTH 5 0
BBX 3 4 1 1
BITMAP
20
C0
80
60
ENDCHAR
STARTCHAR 003D
ENCODING 61
SWIDTH 600 0
DWIDTH 5 0
BBX 3 3 1 1
BITMAP
E0
00
E0
ENDCHAR
STARTCHAR 003E
ENCODING 62
SWIDTH 600 0
DWIDTH 5 0
BBX 3 4 1 1
BITMAP
80
60
20
C0
ENDCHAR
STARTCHAR 003F
ENCODING 63
SWIDTH 600 0
DWIDTH 5 0
BBX 3 6 1 0
BITMAP
E0
20
60
00
00
C0
ENDCHAR
STARTCHAR 0040
ENCODING 64
SWIDTH 600 0
DWIDTH 5 0
BBX 5 6 0 0
BITMAP
70
88
F8
C8
B0
E0
ENDCHAR
STARTCHAR 0041
ENCODING 65
SWIDTH 600 0
DWIDTH 5 0
BBX 5 6 0 0
BITMAP
20
60
50
50
70
88
ENDCHAR
STARTCHAR 0042
ENCODING 66
SWIDTH 600 0
DWIDTH 5 0
BBX 4 6 1 0
BITMAP
E0
A0
E0
A0
90
E0
ENDCHAR
STARTCHAR 0043
ENCODING 67
SWIDTH 600 0
DWIDTH 5 0
BBX 4 6 0 0
BITMAP
70
40
80
80
80
70
ENDCHAR
STARTCHAR 0044
ENCODING 68
SWIDTH 600 0
DWIDTH 5 0
BBX 4 6 1 0
BITMAP
E0
A0
90
90
A0
C0
ENDCHAR
STARTCHAR 0045
ENCODING 69
SWIDTH 600 0
DWIDTH 5 0
BBX 4 6 1 0
BITMAP
E0
80
E0
80
80
F0
ENDCHAR
STARTCHAR 0046
ENCODING 70
SWIDTH 600 0
DWIDTH 5 0
BBX 3 6 1 0
BITMAP
E0
80
80
E0
80
80
ENDCHAR
STARTCHAR 0047
ENCODING 71
SWIDTH 600 0
DWIDTH 5 0
BBX 5 6 0 0
BITMAP
30
40
80
98
88
78
ENDCHAR
STARTCHAR 0048
ENCODING 72
SWIDTH 600 0
DWIDTH 5 0
BBX 3 6 1 0
BITMAP
A0
A0
E0
A0
A0
A0
ENDCHAR
STARTCHAR 0049
ENCODING 73
SWIDTH 600 0
DWIDTH 5 0
BBX 1 6 2 0
BITMAP
80
80
80
80
80
80
ENDCHAR
STARTCHAR 004A
ENCODING 74
SWIDTH 600 0
DWIDTH 5 0
BBX 3 6 1 0
BITMAP
20
20
20
20
20
E0
ENDCHAR
STARTCHAR 004B
ENCODING 75
SWIDTH 600 0
DWIDTH 5 0
BBX 4 6 1 0
BITMAP
A0
A0
C0
C0
A0
90
ENDCHAR
STARTCHAR 004C
ENCODING 76
SWIDTH 600 0
DWIDTH 5 0
BBX 4 6 1 0
BITMAP
80
80
80
80
80
F0
ENDCHAR
STARTCHAR 004D
ENCODING 77
SWIDTH 600 0
DWIDTH 5 0
BBX 4 6 1 0
BITMAP
A0
A0
E0
E0
90
90
ENDCHAR
STARTCHAR 004E
ENCODING 78
SWIDTH 600 0
DWIDTH 5 0
BBX 3 6 1 0
BITMAP
A0
A0
E0
E0
A0
A0
ENDCHAR
STARTCHAR 004F
ENCODING 79
SWIDTH 600 0
DWIDTH 5 0
BBX 5 6 0 0
BITMAP
70
90
88
88
90
70
ENDCHAR
STARTCHAR 0050
ENCODING 80
SWIDTH 600 0
DWIDTH 5 0
BBX 4 6 1 0
BITMAP
E0
90
90
E0
80
80
ENDCHAR
STARTCHAR 0051
ENCODING 81
SWIDTH 600 0
DWIDTH 5 0
BBX 5 7 0 -1
BITMAP
70
90
88
88
B0
70
08
ENDCHAR
STARTCHAR 0052
ENCODING 82
SWIDTH 600 0
DWIDTH 5 0
BBX 3 6 1 0
BITMAP
E0
A0
A0
C0
A0
A0
ENDCHAR
STARTCHAR 0053
ENCODING 83
SWIDTH 600 0
DWIDTH 5 0
BBX 3 6 1 0
BITMAP
E0
80
80
60
20
E0
ENDCHAR
STARTCHAR 0054
ENCODING 84
SWIDTH 600 0
DWIDTH 5 0
BBX 5 6 0 0
BITMAP
F8
20
20
20
20
20
ENDCHAR
STARTCHAR 0055
ENCODING 85
SWIDTH 600 0
DWIDTH 5 0
BBX 3 6 1 0
BITMAP
A0
A0
A0
A0
A0
E0
ENDCHAR
STARTCHAR 0056
ENCODING 86
SWIDTH 600 0
DWIDTH 5 0
BBX 5 6 0 0
BITMAP
88
50
50
50
60
20
ENDCHAR
STARTCHAR 0057
ENCODING 87
SWIDTH 600 0
DWIDTH 5 0
BBX 5 6 0 0
BITMAP
88
A8
B0
F0
70
50
ENDCHAR
STARTCHAR 0058
ENCODING 88
SWIDTH 600 0
DWIDTH 5 0
BBX 4 6 0 0
BITMAP
50
50
20
20
50
90
ENDCHAR
STARTCHAR 0059
ENCODING 89
SWIDTH 600 0
DWIDTH 5 0
BBX 4 6 0 0
BITMAP
90
50
60
20
20
20
ENDCHAR
STARTCHAR 005A
ENCODING 90
SWIDTH 600 0
DWIDTH 5 0
BBX 4 6 1 0
BITMAP
E0
20
40
40
80
F0
ENDCHAR
STARTCHAR 005B
ENCODING 91
SWIDTH 600 0
DWIDTH 5 0
BBX 2 8 2 -1
BITMAP
C0
80
80
80
80
80
80
C0
ENDCHAR
STARTCHAR 005C
ENCODING 92
SWIDTH 600 0
DWIDTH 5 0
BBX 5 7 0 -1
BITMAP
80
40
40
20
20
10
08
ENDCHAR
STARTCHAR 005D
ENCODING 93
SWIDTH 600 0
DWIDTH 5 0
BBX 3 8 1 -1
BITMAP
E0
20
20
20
20
20
20
E0
ENDCHAR
STARTCHAR 005E
ENCODING 94
SWIDTH 600 0
DWIDTH 5 0
BBX 3 3 1 3
BITMAP
40
A0
A0
ENDCHAR
STARTCHAR 005F
ENCODING 95
SWIDTH 600 0
DWIDTH 5 0
BBX 3 1 1 -1
BITMAP
E0
ENDCHAR
STARTCHAR 0060
ENCODING 96
SWIDTH 600 0
DWIDTH 5 0
BBX 2 2 1 4
BITMAP
80
40
ENDCHAR
STARTCHAR 0061
ENCODING 97
SWIDTH 600 0
DWIDTH 5 0
BBX 4 4 1 0
BITMAP
E0
20
E0
F0
ENDCHAR
STARTCHAR 0062
ENCODING 98
SWIDTH 600 0
DWIDTH 5 0
BBX 4 6 1 0
BITMAP
80
80
E0
90
90
E0
ENDCHAR
STARTCHAR 0063
ENCODING 99
SWIDTH 600 0
DWIDTH 5 0
BBX 3 4 1 0
BITMAP
E0
80
80
E0
ENDCHAR
STARTCHAR 0064
ENCODING 100
SWIDTH 600 0
DWIDTH 5 0
BBX 4 6 0 0
BITMAP
10
10
70
90
90
70
ENDCHAR
STARTCHAR 0065
ENCODING 101
SWIDTH 600 0
DWIDTH 5 0
BBX 3 4 1 0
BITMAP
E0
A0
E0
E0
ENDCHAR
STARTCHAR 0066
ENCODING 102
SWIDTH 600 0
DWIDTH 5 0
BBX 4 6 1 0
BITMAP
70
40
E0
40
40
40
ENDCHAR
STARTCHAR 0067
ENCODING 103
SWIDTH 600 0
DWIDTH 5 0
BBX 4 6 0 -2
BITMAP
70
90
90
70
10
70
ENDCHAR
STARTCHAR 0068
ENCODING 104
SWIDTH 600 0
DWIDTH 5 0
BBX 3 6 1 0
BITMAP
80
80
E0
A0
A0
A0
ENDCHAR
STARTCHAR 0069
ENCODING 105
SWIDTH 600 0
DWIDTH 5 0
BBX 3 6 1 0
BITMAP
40
00
C0
40
40
E0
ENDCHAR
STARTCHAR 006A
ENCODING 106
SWIDTH 600 0
DWIDTH 5 0
BBX 3 8 1 -2
BITMAP
60
00
C0
40
40
40
40
C0
ENDCHAR
STARTCHAR 006B
ENCODING 107
SWIDTH 600 0
DWIDTH 5 0
BBX 3 6 1 0
BITMAP
80
80
A0
C0
C0
A0
ENDCHAR
STARTCHAR 006C
ENCODING 108
SWIDTH 600 0
DWIDTH 5 0
BBX 4 6 0 0
BITMAP
E0
20
20
20
20
30
ENDCHAR
STARTCHAR 006D
ENCODING 109
SWIDTH 600 0
DWIDTH 5 0
BBX 5 4 0 0
BITMAP
F8
A8
A8
A8
ENDCHAR
STARTCHAR 006E
ENCODING 110
SWIDTH 600 0
DWIDTH 5 0
BBX 3 4 1 0
BITMAP
E0
A0
A0
A0
ENDCHAR
STARTCHAR 006F
ENCODING 111
SWIDTH 600 0
DWIDTH 5 0
BBX 4 4 1 0
BITMAP
E0
90
90
E0
ENDCHAR
STARTCHAR 0070
ENCODING 112
SWIDTH 600 0
DWIDTH 5 0
BBX 4 6 1 -2
BITMAP
E0
90
90
E0
80
80
ENDCHAR
STARTCHAR 0071
ENCODING 113
SWIDTH 600 0
DWIDTH 5 0
BBX 4 6 0 -2
BITMAP
70
90
90
70
10
10
ENDCHAR
STARTCHAR 0072
ENCODING 114
SWIDTH 600 0
DWIDTH 5 0
BBX 5 4 0 0
BITMAP
58
60
40
E0
ENDCHAR
STARTCHAR 0073
ENCODING 115
SWIDTH 600 0
DWIDTH 5 0
BBX 3 4 1 0
BITMAP
E0
80
60
E0
ENDCHAR
STARTCHAR 0074
ENCODING 116
SWIDTH 600 0
DWIDTH 5 0
BBX 3 5 1 0
BITMAP
40
E0
40
40
60
ENDCHAR
STARTCHAR 0075
ENCODING 117
SWIDTH 600 0
DWIDTH 5 0
BBX 3 4 1 0
BITMAP
A0
A0
A0
E0
ENDCHAR
STARTCHAR 0076
ENCODING 118
SWIDTH 600 0
DWIDTH 5 0
BBX 4 4 0 0
BITMAP
90
50
50
20
ENDCHAR
STARTCHAR 0077
ENCODING 119
SWIDTH 600 0
DWIDTH 5 0
BBX 5 4 0 0
BITMAP
88
B0
F0
50
ENDCHAR
STARTCHAR 0078
ENCODING 120
SWIDTH 600 0
DWIDTH 5 0
BBX 3 4 1 0
BITMAP
A0
40
C0
A0
ENDCHAR
STARTCHAR 0079
ENCODING 121
SWIDTH 600 0
DWIDTH 5 0
BBX 4 6 0 -2
BITMAP
90
50
50
20
20
C0
ENDCHAR
STARTCHAR 007A
ENCODING 122
SWIDTH 600 0
DWIDTH 5 0
BBX 3 4 1 0
BITMAP
E0
40
40
E0
ENDCHAR
STARTCHAR 007B
ENCODING 123
SWIDTH 600 0
DWIDTH 5 0
BBX 4 8 1 -1
BITMAP
70
80
40
40
C0
40
40
70
ENDCHAR
STARTCHAR 007C
ENCODING 124
SWIDTH 600 0
DWIDTH 5 0
BBX 1 7 2 -1
BITMAP
80
80
80
80
80
80
80
ENDCHAR
STARTCHAR 007D
ENCODING 125
SWIDTH 600 0
DWIDTH 5 0
BBX 3 8 1 -1
BITMAP
C0
40
40
60
20
C0
40
C0
ENDCHAR
STARTCHAR 007E
ENCODING 126
SWIDTH 600 0
DWIDTH 5 0
BBX 5 3 0 1
BITMAP
48
B0
90
ENDCHAR
STARTCHAR 00A0
ENCODING 160
SWIDTH 600 0
DWIDTH 5 0
BBX 0 0 0 0
BITMAP
ENDCHAR
STARTCHAR 00A1
ENCODING 161
SWIDTH 600 0
DWIDTH 5 0
BBX 1 6 2 0
BITMAP
80
00
80
80
80
80
ENDCHAR
STARTCHAR 00A2
ENCODING 162
SWIDTH 600 0
DWIDTH 5 0
BBX 3 6 1 -1
BITMAP
40
E0
C0
C0
E0
40
ENDCHAR
STARTCHAR 00A3
ENCODING 163
SWIDTH 600 0
DWIDTH 5 0
BBX 4 6 1 0
BITMAP
E0
80
80
40
80
F0
ENDCHAR
STARTCHAR 00A5
ENCODING 165
SWIDTH 600 0
DWIDTH 5 0
BBX 4 6 0 0
BITMAP
90
50
60
20
20
20
ENDCHAR
STARTCHAR 00A7
ENCODING 167
SWIDTH 600 0
DWIDTH 5 0
BBX 5 8 0 -2
BITMAP
70
40
30
C8
90
60
10
70
ENDCHAR
STARTCHAR 00A8
ENCODING 168
SWIDTH 600 0
DWIDTH 5 0
BBX 3 1 1 5
BITMAP
A0
ENDCHAR
STARTCHAR 00A9
ENCODING 169
SWIDTH 600 0
DWIDTH 5 0
BBX 5 6 0 0
BITMAP
70
90
E8
C8
D8
F0
ENDCHAR
STARTCHAR 00AA
ENCODING 170
SWIDTH 600 0
DWIDTH 5 0
BBX 3 4 1 2
BITMAP
E0
60
A0
40
ENDCHAR
STARTCHAR 00AB
ENCODING 171
SWIDTH 600 0
DWIDTH 5 0
BBX 3 4 1 0
BITMAP
A0
A0
A0
A0
ENDCHAR
STARTCHAR 00AE
ENCODING 174
SWIDTH 600 0
DWIDTH 5 0
BBX 4 4 1 2
BITMAP
E0
E0
D0
E0
ENDCHAR
STARTCHAR 00AF
ENCODING 175
SWIDTH 600 0
DWIDTH 5 0
BBX 3 1 1 5
BITMAP
E0
ENDCHAR
STARTCHAR 00B0
ENCODING 176
SWIDTH 600 0
DWIDTH 5 0
BBX 3 4 1 2
BITMAP
E0
A0
A0
40
ENDCHAR
STARTCHAR 00B1
ENCODING 177
SWIDTH 600 0
DWIDTH 5 0
BBX 4 6 1 0
BITMAP
40
40
F0
40
00
F0
ENDCHAR
STARTCHAR 00B2
ENCODING 178
SWIDTH 600 0
DWIDTH 5 0
BBX 3 3 1 3
BITMAP
E0
20
40
ENDCHAR
STARTCHAR 00B3
ENCODING 179
SWIDTH 600 0
DWIDTH 5 0
BBX 2 4 2 2
BITMAP
80
40
40
80
ENDCHAR
STARTCHAR 00B4
ENCODING 180
SWIDTH 600 0
DWIDTH 5 0
BBX 2 2 2 4
BITMAP
40
80
ENDCHAR
STARTCHAR 00B5
ENCODING 181
SWIDTH 600 0
DWIDTH 5 0
BBX 3 6 1 -2
BITMAP
A0
A0
A0
E0
80
80
ENDCHAR
STARTCHAR 00B6
ENCODING 182
SWIDTH 600 0
DWIDTH 5 0
BBX 3 6 1 0
BITMAP
E0
E0
E0
20
20
20
ENDCHAR
STARTCHAR 00B7
ENCODING 183
SWIDTH 600 0
DWIDTH 5 0
BBX 1 1 2 2
BITMAP
80
ENDCHAR
STARTCHAR 00B8
ENCODING 184
SWIDTH 600 0
DWIDTH 5 0
BBX 2 2 2 -2
BITMAP
80
40
ENDCHAR
STARTCHAR 00B9
ENCODING 185
SWIDTH 600 0
DWIDTH 5 0
BBX 1 3 2 3
BITMAP
80
80
80
ENDCHAR
STARTCHAR 00BA
ENCODING 186
SWIDTH 600 0
DWIDTH 5 0
BBX 3 4 1 2
BITMAP
E0
A0
A0
40
ENDCHAR
STARTCHAR 00BB
ENCODING 187
SWIDTH 600 0
DWIDTH 5 0
BBX 3 4 1 0
BITMAP
C0
A0
A0
C0
ENDCHAR
STARTCHAR 00BC
ENCODING 188
SWIDTH 600 0
DWIDTH 5 0
BBX 5 8 0 -2
BITMAP
C0
40
48
30
40
B0
B0
10
ENDCHAR
STARTCHAR 00BD
ENCODING 189
SWIDTH 600 0
DWIDTH 5 0
BBX 5 8 0 -2
BITMAP
C0
40
48
30
40
B8
10
30
ENDCHAR
STARTCHAR 00BE
ENCODING 190
SWIDTH 600 0
DWIDTH 5 0
BBX 5 8 0 -2
BITMAP
40
40
28
70
40
B0
B0
10
ENDCHAR
STARTCHAR 00BF
ENCODING 191
SWIDTH 600 0
DWIDTH 5 0
BBX 4 6 1 0
BITMAP
60
00
40
C0
80
F0
ENDCHAR
STARTCHAR 00C0
ENCODING 192
SWIDTH 600 0
DWIDTH 5 0
BBX 5 8 0 0
BITMAP
40
20
20
60
50
50
70
88
ENDCHAR
STARTCHAR 00C1
ENCODING 193
SWIDTH 600 0
DWIDTH 5 0
BBX 5 8 0 0
BITMAP
10
20
20
60
50
50
70
88
ENDCHAR
STARTCHAR 00C2
ENCODING 194
SWIDTH 600 0
DWIDTH 5 0
BBX 5 8 0 0
BITMAP
20
50
20
60
50
50
70
88
ENDCHAR
STARTCHAR 00C3
ENCODING 195
SWIDTH 600 0
DWIDTH 5 0
BBX 5 8 0 1
BITMAP
70
00
20
60
50
50
70
88
ENDCHAR
STARTCHAR 00C4
ENCODING 196
SWIDTH 600 0
DWIDTH 5 0
BBX 5 8 0 0
BITMAP
50
00
20
60
50
50
70
88
ENDCHAR
STARTCHAR 00C5
ENCODING 197
SWIDTH 600 0
DWIDTH 5 0
BBX 5 7 0 0
BITMAP
70
50
60
50
50
70
88
ENDCHAR
STARTCHAR 00C6
ENCODING 198
SWIDTH 600 0
DWIDTH 5 0
BBX 5 6 0 0
BITMAP
38
60
78
A0
E0
B8
ENDCHAR
STARTCHAR 00C7
ENCODING 199
SWIDTH 600 0
DWIDTH 5 0
BBX 4 8 0 -2
BITMAP
70
40
80
80
80
70
20
10
ENDCHAR
STARTCHAR 00C8
ENCODING 200
SWIDTH 600 0
DWIDTH 5 0
BBX 4 8 1 0
BITMAP
40
00
E0
80
E0
80
80
F0
ENDCHAR
STARTCHAR 00C9
ENCODING 201
SWIDTH 600 0
DWIDTH 5 0
BBX 4 8 1 0
BITMAP
20
00
E0
80
E0
80
80
F0
ENDCHAR
STARTCHAR 00CA
ENCODING 202
SWIDTH 600 0
DWIDTH 5 0
BBX 4 8 1 0
BITMAP
60
00
E0
80
E0
80
80
F0
ENDCHAR
STARTCHAR 00CB
ENCODING 203
SWIDTH 600 0
DWIDTH 5 0
BBX 4 8 1 0
BITMAP
A0
00
E0
80
E0
80
80
F0
ENDCHAR
STARTCHAR 00CC
ENCODING 204
SWIDTH 600 0
DWIDTH 5 0
BBX 2 8 1 0
BITMAP
C0
00
40
40
40
40
40
40
ENDCHAR
STARTCHAR 00CD
ENCODING 205
SWIDTH 600 0
DWIDTH 5 0
BBX 2 8 2 0
BITMAP
40
80
80
80
80
80
80
80
ENDCHAR
STARTCHAR 00CE
ENCODING 206
SWIDTH 600 0
DWIDTH 5 0
BBX 3 8 1 0
BITMAP
E0
00
40
40
40
40
40
40
ENDCHAR
STARTCHAR 00CF
ENCODING 207
SWIDTH 600 0
DWIDTH 5 0
BBX 3 8 1 0
BITMAP
A0
00
40
40
40
40
40
40
ENDCHAR
STARTCHAR 00D0
ENCODING 208
SWIDTH 600 0
DWIDTH 5 0
BBX 4 6 1 0
BITMAP
E0
A0
90
90
A0
C0
ENDCHAR
STARTCHAR 00D1
ENCODING 209
SWIDTH 600 0
DWIDTH 5 0
BBX 3 8 1 1
BITMAP
E0
00
A0
A0
E0
E0
A0
A0
ENDCHAR
STARTCHAR 00D2
ENCODING 210
SWIDTH 600 0
DWIDTH 5 0
BBX 5 8 0 0
BITMAP
40
20
70
90
88
88
90
70
ENDCHAR
STARTCHAR 00D3
ENCODING 211
SWIDTH 600 0
DWIDTH 5 0
BBX 5 8 0 0
BITMAP
10
20
70
90
88
88
90
70
ENDCHAR
STARTCHAR 00D4
ENCODING 212
SWIDTH 600 0
DWIDTH 5 0
BBX 5 8 0 0
BITMAP
20
50
70
90
88
88
90
70
ENDCHAR
STARTCHAR 00D5
ENCODING 213
SWIDTH 600 0
DWIDTH 5 0
BBX 5 8 0 0
BITMAP
60
10
70
90
88
88
90
70
ENDCHAR
STARTCHAR 00D6
ENCODING 214
SWIDTH 600 0
DWIDTH 5 0
BBX 5 8 0 0
BITMAP
50
00
70
90
88
88
90
70
ENDCHAR
STARTCHAR 00D7
ENCODING 215
SWIDTH 600 0
DWIDTH 5 0
BBX 3 3 1 2
BITMAP
A0
40
A0
ENDCHAR
STARTCHAR 00D8
ENCODING 216
SWIDTH 600 0
DWIDTH 5 0
BBX 5 6 0 0
BITMAP
70
90
A8
A8
50
70
ENDCHAR
STARTCHAR 00D9
ENCODING 217
SWIDTH 600 0
DWIDTH 5 0
BBX 3 8 1 0
BITMAP
80
40
A0
A0
A0
A0
A0
E0
ENDCHAR
STARTCHAR 00DA
ENCODING 218
SWIDTH 600 0
DWIDTH 5 0
BBX 3 8 1 0
BITMAP
20
40
A0
A0
A0
A0
A0
E0
ENDCHAR
STARTCHAR 00DB
ENCODING 219
SWIDTH 600 0
DWIDTH 5 0
BBX 3 8 1 0
BITMAP
E0
00
A0
A0
A0
A0
A0
E0
ENDCHAR
STARTCHAR 00DC
ENCODING 220
SWIDTH 600 0
DWIDTH 5 0
BBX 3 8 1 0
BITMAP
A0
00
A0
A0
A0
A0
A0
E0
ENDCHAR
STARTCHAR 00DD
ENCODING 221
SWIDTH 600 0
DWIDTH 5 0
BBX 4 8 0 0
BITMAP
10
20
90
50
60
20
20
20
ENDCHAR
STARTCHAR 00DE
ENCODING 222
SWIDTH 600 0
DWIDTH 5 0
BBX 4 6 1 0
BITMAP
80
E0
90
90
E0
80
ENDCHAR
STARTCHAR 00DF
ENCODING 223
SWIDTH 600 0
DWIDTH 5 0
BBX 4 6 1 0
BITMAP
E0
A0
A0
A0
90
A0
ENDCHAR
STARTCHAR 00E0
ENCODING 224
SWIDTH 600 0
DWIDTH 5 0
BBX 4 6 1 0
BITMAP
40
00
E0
20
E0
F0
ENDCHAR
STARTCHAR 00E1
ENCODING 225
SWIDTH 600 0
DWIDTH 5 0
BBX 4 6 1 0
BITMAP
40
00
E0
20
E0
F0
ENDCHAR
STARTCHAR 00E2
ENCODING 226
SWIDTH 600 0
DWIDTH 5 0
BBX 4 6 1 0
BITMAP
C0
20
E0
20
E0
F0
ENDCHAR
STARTCHAR 00E3
ENCODING 227
SWIDTH 600 0
DWIDTH 5 0
BBX 4 6 1 1
BITMAP
E0
00
E0
20
E0
F0
ENDCHAR
STARTCHAR 00E4
ENCODING 228
SWIDTH 600 0
DWIDTH 5 0
BBX 4 6 1 0
BITMAP
A0
00
E0
20
E0
F0
ENDCHAR
STARTCHAR 00E5
ENCODING 229
SWIDTH 600 0
DWIDTH 5 0
BBX 4 6 1 0
BITMAP
E0
40
E0
20
E0
F0
ENDCHAR
STARTCHAR 00E6
ENCODING 230
SWIDTH 600 0
DWIDTH 5 0
BBX 5 4 0 0
BITMAP
70
28
F8
D0
ENDCHAR
STARTCHAR 00E7
ENCODING 231
SWIDTH 600 0
DWIDTH 5 0
BBX 3 6 1 -2
BITMAP
E0
80
80
E0
40
20
ENDCHAR
STARTCHAR 00E8
ENCODING 232
SWIDTH 600 0
DWIDTH 5 0
BBX 3 6 1 0
BITMAP
40
00
E0
A0
E0
E0
ENDCHAR
STARTCHAR 00E9
ENCODING 233
SWIDTH 600 0
DWIDTH 5 0
BBX 3 6 1 0
BITMAP
20
40
E0
A0
E0
E0
ENDCHAR
STARTCHAR 00EA
ENCODING 234
SWIDTH 600 0
DWIDTH 5 0
BBX 3 6 1 0
BITMAP
60
00
E0
A0
E0
E0
ENDCHAR
STARTCHAR 00EB
ENCODING 235
SWIDTH 600 0
DWIDTH 5 0
BBX 3 6 1 0
BITMAP
A0
00
E0
A0
E0
E0
ENDCHAR
STARTCHAR 00EC
ENCODING 236
SWIDTH 600 0
DWIDTH 5 0
BBX 3 6 1 0
BITMAP
40
00
C0
40
40
E0
ENDCHAR
STARTCHAR 00ED
ENCODING 237
SWIDTH 600 0
DWIDTH 5 0
BBX 3 6 1 0
BITMAP
60
00
C0
40
40
E0
ENDCHAR
STARTCHAR 00EE
ENCODING 238
SWIDTH 600 0
DWIDTH 5 0
BBX 3 6 1 0
BITMAP
E0
00
C0
40
40
E0
ENDCHAR
STARTCHAR 00EF
ENCODING 239
SWIDTH 600 0
DWIDTH 5 0
BBX 3 6 1 0
BITMAP
A0
00
C0
40
40
E0
ENDCHAR
STARTCHAR 00F0
ENCODING 240
SWIDTH 600 0
DWIDTH 5 0
BBX 4 6 1 0
BITMAP
60
20
F0
90
A0
E0
ENDCHAR
STARTCHAR 00F1
ENCODING 241
SWIDTH 600 0
DWIDTH 5 0
BBX 3 6 1 1
BITMAP
E0
00
E0
A0
A0
A0
ENDCHAR
STARTCHAR 00F2
ENCODING 242
SWIDTH 600 0
DWIDTH 5 0
BBX 4 6 1 0
BITMAP
40
00
E0
90
90
E0
ENDCHAR
STARTCHAR 00F3
ENCODING 243
SWIDTH 600 0
DWIDTH 5 0
BBX 4 6 1 0
BITMAP
20
40
E0
90
90
E0
ENDCHAR
STARTCHAR 00F4
ENCODING 244
SWIDTH 600 0
DWIDTH 5 0
BBX 4 6 1 0
BITMAP
C0
20
E0
90
90
E0
ENDCHAR
STARTCHAR 00F5
ENCODING 245
SWIDTH 600 0
DWIDTH 5 0
BBX 4 6 1 1
BITMAP
E0
00
E0
90
90
E0
ENDCHAR
STARTCHAR 00F6
ENCODING 246
SWIDTH 600 0
DWIDTH 5 0
BBX 4 6 1 0
BITMAP
A0
00
E0
90
90
E0
ENDCHAR
STARTCHAR 00F7
ENCODING 247
SWIDTH 600 0
DWIDTH 5 0
BBX 4 5 1 0
BITMAP
40
00
F0
00
40
ENDCHAR
STARTCHAR 00F8
ENCODING 248
SWIDTH 600 0
DWIDTH 5 0
BBX 5 4 0 0
BITMAP
70
A8
C8
70
ENDCHAR
STARTCHAR 00F9
ENCODING 249
SWIDTH 600 0
DWIDTH 5 0
BBX 3 6 1 0
BITMAP
40
00
A0
A0
A0
E0
ENDCHAR
STARTCHAR 00FA
ENCODING 250
SWIDTH 600 0
DWIDTH 5 0
BBX 3 6 1 0
BITMAP
20
40
A0
A0
A0
E0
ENDCHAR
STARTCHAR 00FB
ENCODING 251
SWIDTH 600 0
DWIDTH 5 0
BBX 3 6 1 0
BITMAP
E0
00
A0
A0
A0
E0
ENDCHAR
STARTCHAR 00FC
ENCODING 252
SWIDTH 600 0
DWIDTH 5 0
BBX 3 6 1 0
BITMAP
A0
00
A0
A0
A0
E0
ENDCHAR
STARTCHAR 00FD
ENCODING 253
SWIDTH 600 0
DWIDTH 5 0
BBX 4 8 0 -2
BITMAP
20
00
90
50
50
20
20
C0
ENDCHAR
STARTCHAR 00FE
ENCODING 254
SWIDTH 600 0
DWIDTH 5 0
BBX 4 8 1 -2
BITMAP
80
80
E0
90
90
E0
80
80
ENDCHAR
STARTCHAR 00FF
ENCODING 255
SWIDTH 600 0
DWIDTH 5 0
BBX 4 8 0 -2
BITMAP
50
00
90
50
50
20
20
C0
ENDCHAR
STARTCHAR 0100
ENCODING 256
SWIDTH 600 0
DWIDTH 5 0
BBX 5 8 0 0
BITMAP
70
00
20
60
50
50
70
88
ENDCHAR
STARTCHAR 0101
ENCODING 257
SWIDTH 600 0
DWIDTH 5 0
BBX 4 6 1 0
BITMAP
E0
00
E0
20
E0
F0
ENDCHAR
STARTCHAR 0102
ENCODING 258
SWIDTH 600 0
DWIDTH 5 0
BBX 5 8 0 1
BITMAP
70
00
20
60
50
50
70
88
ENDCHAR
STARTCHAR 0103
ENCODING 259
SWIDTH 600 0
DWIDTH 5 0
BBX 4 6 1 0
BITMAP
A0
40
E0
20
E0
F0
ENDCHAR
STARTCHAR 0104
ENCODING 260
SWIDTH 600 0
DWIDTH 5 0
BBX 5 8 0 -2
BITMAP
20
60
50
50
70
88
10
18
ENDCHAR
STARTCHAR 0105
ENCODING 261
SWIDTH 600 0
DWIDTH 5 0
BBX 4 6 1 -2
BITMAP
E0
20
E0
F0
20
20
ENDCHAR
STARTCHAR 0106
ENCODING 262
SWIDTH 600 0
DWIDTH 5 0
BBX 4 8 0 0
BITMAP
10
00
70
40
80
80
80
70
ENDCHAR
STARTCHAR 0107
ENCODING 263
SWIDTH 600 0
DWIDTH 5 0
BBX 3 6 1 0
BITMAP
20
40
E0
80
80
E0
ENDCHAR
STARTCHAR 0108
ENCODING 264
SWIDTH 600 0
DWIDTH 5 0
BBX 4 8 0 0
BITMAP
30
00
70
40
80
80
80
70
ENDCHAR
STARTCHAR 0109
ENCODING 265
SWIDTH 600 0
DWIDTH 5 0
BBX 3 6 1 0
BITMAP
60
00
E0
80
80
E0
ENDCHAR
STARTCHAR 010A
ENCODING 266
SWIDTH 600 0
DWIDTH 5 0
BBX 4 8 0 0
BITMAP
20
00
70
40
80
80
80
70
ENDCHAR
STARTCHAR 010B
ENCODING 267
SWIDTH 600 0
DWIDTH 5 0
BBX 3 6 1 0
BITMAP
40
00
E0
80
80
E0
ENDCHAR
STARTCHAR 010C
ENCODING 268
SWIDTH 600 0
DWIDTH 5 0
BBX 4 9 0 0
BITMAP
40
30
00
70
40
80
80
80
70
ENDCHAR
STARTCHAR 010D
ENCODING 269
SWIDTH 600 0
DWIDTH 5 0
BBX 3 6 1 0
BITMAP
A0
40
E0
80
80
E0
ENDCHAR
STARTCHAR 010E
ENCODING 270
SWIDTH 600 0
DWIDTH 5 0
BBX 4 9 1 0
BITMAP
20
C0
00
E0
A0
90
90
A0
C0
ENDCHAR
STARTCHAR 010F
ENCODING 271
SWIDTH 600 0
DWIDTH 5 0
BBX 6 7 0 0
BITMAP
04
14
10
70
90
90
70
ENDCHAR
STARTCHAR 0110
ENCODING 272
SWIDTH 600 0
DWIDTH 5 0
BBX 4 6 1 0
BITMAP
E0
A0
90
90
A0
C0
ENDCHAR
STARTCHAR 0111
ENCODING 273
SWIDTH 600 0
DWIDTH 5 0
BBX 4 6 0 0
BITMAP
10
10
30
D0
90
70
ENDCHAR
STARTCHAR 0112
ENCODING 274
SWIDTH 600 0
DWIDTH 5 0
BBX 4 8 1 0
BITMAP
E0
00
E0
80
E0
80
80
F0
ENDCHAR
STARTCHAR 0113
ENCODING 275
SWIDTH 600 0
DWIDTH 5 0
BBX 3 6 1 0
BITMAP
E0
00
E0
A0
E0
E0
ENDCHAR
STARTCHAR 0114
ENCODING 276
SWIDTH 600 0
DWIDTH 5 0
BBX 4 8 1 1
BITMAP
60
00
E0
80
E0
80
80
F0
ENDCHAR
STARTCHAR 0115
ENCODING 277
SWIDTH 600 0
DWIDTH 5 0
BBX 3 6 1 0
BITMAP
A0
40
E0
A0
E0
E0
ENDCHAR
STARTCHAR 0116
ENCODING 278
SWIDTH 600 0
DWIDTH 5 0
BBX 4 8 1 0
BITMAP
40
00
E0
80
E0
80
80
F0
ENDCHAR
STARTCHAR 0117
ENCODING 279
SWIDTH 600 0
DWIDTH 5 0
BBX 3 6 1 0
BITMAP
40
00
E0
A0
E0
E0
ENDCHAR
STARTCHAR 0118
ENCODING 280
SWIDTH 600 0
DWIDTH 5 0
BBX 4 8 1 -2
BITMAP
E0
80
E0
80
80
F0
20
20
ENDCHAR
STARTCHAR 0119
ENCODING 281
SWIDTH 600 0
DWIDTH 5 0
BBX 3 6 1 -2
BITMAP
E0
A0
E0
E0
40
60
ENDCHAR
STARTCHAR 011A
ENCODING 282
SWIDTH 600 0
DWIDTH 5 0
BBX 4 9 1 0
BITMAP
80
60
00
E0
80
E0
80
80
F0
ENDCHAR
STARTCHAR 011B
ENCODING 283
SWIDTH 600 0
DWIDTH 5 0
BBX 3 6 1 0
BITMAP
A0
40
E0
A0
E0
E0
ENDCHAR
STARTCHAR 011C
ENCODING 284
SWIDTH 600 0
DWIDTH 5 0
BBX 5 8 0 0
BITMAP
30
00
30
40
80
98
88
78
ENDCHAR
STARTCHAR 011D
ENCODING 285
SWIDTH 600 0
DWIDTH 5 0
BBX 4 8 0 -2
BITMAP
60
10
70
90
90
70
10
70
ENDCHAR
STARTCHAR 011E
ENCODING 286
SWIDTH 600 0
DWIDTH 5 0
BBX 5 8 0 1
BITMAP
30
00
30
40
80
98
88
78
ENDCHAR
STARTCHAR 011F
ENCODING 287
SWIDTH 600 0
DWIDTH 5 0
BBX 4 8 0 -2
BITMAP
50
20
70
90
90
70
10
70
ENDCHAR
STARTCHAR 0120
ENCODING 288
SWIDTH 600 0
DWIDTH 5 0
BBX 5 8 0 0
BITMAP
20
00
30
40
80
98
88
78
ENDCHAR
STARTCHAR 0121
ENCODING 289
SWIDTH 600 0
DWIDTH 5 0
BBX 4 8 0 -2
BITMAP
20
00
70
90
90
70
10
70
ENDCHAR
STARTCHAR 0122
ENCODING 290
SWIDTH 600 0
DWIDTH 5 0
BBX 5 8 0 -2
BITMAP
30
40
80
98
88
78
00
30
ENDCHAR
STARTCHAR 0123
ENCODING 291
SWIDTH 600 0
DWIDTH 5 0
BBX 4 8 0 -2
BITMAP
60
20
70
90
90
70
10
70
ENDCHAR
STARTCHAR 0124
ENCODING 292
SWIDTH 600 0
DWIDTH 5 0
BBX 3 8 1 0
BITMAP
E0
00
A0
A0
E0
A0
A0
A0
ENDCHAR
STARTCHAR 0125
ENCODING 293
SWIDTH 600 0
DWIDTH 5 0
BBX 4 8 0 0
BITMAP
C0
20
40
40
70
50
50
50
ENDCHAR
STARTCHAR 0126
ENCODING 294
SWIDTH 600 0
DWIDTH 5 0
BBX 3 6 1 0
BITMAP
A0
E0
A0
E0
A0
A0
ENDCHAR
STARTCHAR 0127
ENCODING 295
SWIDTH 600 0
DWIDTH 5 0
BBX 3 6 1 0
BITMAP
80
80
A0
E0
A0
A0
ENDCHAR
STARTCHAR 0128
ENCODING 296
SWIDTH 600 0
DWIDTH 5 0
BBX 3 8 1 1
BITMAP
E0
00
40
40
40
40
40
40
ENDCHAR
STARTCHAR 0129
ENCODING 297
SWIDTH 600 0
DWIDTH 5 0
BBX 3 6 1 1
BITMAP
E0
00
C0
40
40
E0
ENDCHAR
STARTCHAR 012A
ENCODING 298
SWIDTH 600 0
DWIDTH 5 0
BBX 3 8 1 0
BITMAP
E0
00
40
40
40
40
40
40
ENDCHAR
STARTCHAR 012B
ENCODING 299
SWIDTH 600 0
DWIDTH 5 0
BBX 3 6 1 0
BITMAP
E0
00
C0
40
40
E0
ENDCHAR
STARTCHAR 012C
ENCODING 300
SWIDTH 600 0
DWIDTH 5 0
BBX 3 8 1 1
BITMAP
E0
00
40
40
40
40
40
40
ENDCHAR
STARTCHAR 012D
ENCODING 301
SWIDTH 600 0
DWIDTH 5 0
BBX 3 6 1 0
BITMAP
A0
40
C0
40
40
E0
ENDCHAR
STARTCHAR 012E
ENCODING 302
SWIDTH 600 0
DWIDTH 5 0
BBX 2 8 1 -2
BITMAP
40
40
40
40
40
40
80
40
ENDCHAR
STARTCHAR 012F
ENCODING 303
SWIDTH 600 0
DWIDTH 5 0
BBX 3 8 1 -2
BITMAP
40
00
C0
40
40
E0
40
40
ENDCHAR
STARTCHAR 0130
ENCODING 304
SWIDTH 600 0
DWIDTH 5 0
BBX 1 8 2 0
BITMAP
80
00
80
80
80
80
80
80
ENDCHAR
STARTCHAR 0131
ENCODING 305
SWIDTH 600 0
DWIDTH 5 0
BBX 3 4 1 0
BITMAP
C0
40
40
E0
ENDCHAR
STARTCHAR 0134
ENCODING 308
SWIDTH 600 0
DWIDTH 5 0
BBX 4 8 1 0
BITMAP
30
00
20
20
20
20
20
E0
ENDCHAR
STARTCHAR 0135
ENCODING 309
SWIDTH 600 0
DWIDTH 5 0
BBX 3 8 1 -2
BITMAP
60
00
C0
40
40
40
40
C0
ENDCHAR
STARTCHAR 0136
ENCODING 310
SWIDTH 600 0
DWIDTH 5 0
BBX 4 8 1 -2
BITMAP
A0
A0
C0
C0
A0
90
00
60
ENDCHAR
STARTCHAR 0137
ENCODING 311
SWIDTH 600 0
DWIDTH 5 0
BBX 3 8 1 -2
BITMAP
80
80
A0
C0
C0
A0
00
40
ENDCHAR
STARTCHAR 0139
ENCODING 313
SWIDTH 600 0
DWIDTH 5 0
BBX 4 8 1 0
BITMAP
80
00
80
80
80
80
80
F0
ENDCHAR
STARTCHAR 013A
ENCODING 314
SWIDTH 600 0
DWIDTH 5 0
BBX 4 8 0 0
BITMAP
20
00
E0
20
20
20
20
30
ENDCHAR
STARTCHAR 013B
ENCODING 315
SWIDTH 600 0
DWIDTH 5 0
BBX 4 8 1 -2
BITMAP
80
80
80
80
80
F0
00
60
ENDCHAR
STARTCHAR 013C
ENCODING 316
SWIDTH 600 0
DWIDTH 5 0
BBX 4 8 0 -2
BITMAP
E0
20
20
20
20
30
00
20
ENDCHAR
STARTCHAR 013D
ENCODING 317
SWIDTH 600 0
DWIDTH 5 0
BBX 4 6 1 0
BITMAP
A0
80
80
80
80
F0
ENDCHAR
STARTCHAR 013E
ENCODING 318
SWIDTH 600 0
DWIDTH 5 0
BBX 5 7 0 0
BITMAP
08
E8
20
20
20
20
30
ENDCHAR
STARTCHAR 013F
ENCODING 319
SWIDTH 600 0
DWIDTH 5 0
BBX 4 6 1 0
BITMAP
80
80
A0
80
80
F0
ENDCHAR
STARTCHAR 0140
ENCODING 320
SWIDTH 600 0
DWIDTH 5 0
BBX 6 6 0 0
BITMAP
E0
20
2C
20
20
30
ENDCHAR
STARTCHAR 0141
ENCODING 321
SWIDTH 600 0
DWIDTH 5 0
BBX 4 6 1 0
BITMAP
80
80
C0
80
80
F0
ENDCHAR
STARTCHAR 0142
ENCODING 322
SWIDTH 600 0
DWIDTH 5 0
BBX 4 6 0 0
BITMAP
E0
20
30
60
20
30
ENDCHAR
STARTCHAR 0143
ENCODING 323
SWIDTH 600 0
DWIDTH 5 0
BBX 3 8 1 0
BITMAP
20
40
A0
A0
E0
E0
A0
A0
ENDCHAR
STARTCHAR 0144
ENCODING 324
SWIDTH 600 0
DWIDTH 5 0
BBX 3 6 1 0
BITMAP
40
00
E0
A0
A0
A0
ENDCHAR
STARTCHAR 0145
ENCODING 325
SWIDTH 600 0
DWIDTH 5 0
BBX 3 8 1 -2
BITMAP
A0
A0
E0
E0
A0
A0
00
40
ENDCHAR
STARTCHAR 0146
ENCODING 326
SWIDTH 600 0
DWIDTH 5 0
BBX 3 6 1 -2
BITMAP
E0
A0
A0
A0
00
40
ENDCHAR
STARTCHAR 0147
ENCODING 327
SWIDTH 600 0
DWIDTH 5 0
BBX 3 8 1 1
BITMAP
60
00
A0
A0
E0
E0
A0
A0
ENDCHAR
STARTCHAR 0148
ENCODING 328
SWIDTH 600 0
DWIDTH 5 0
BBX 3 6 1 0
BITMAP
A0
40
E0
A0
A0
A0
ENDCHAR
STARTCHAR 014A
ENCODING 330
SWIDTH 600 0
DWIDTH 5 0
BBX 3 8 1 -2
BITMAP
A0
A0
E0
E0
A0
A0
20
60
ENDCHAR
STARTCHAR 014B
ENCODING 331
SWIDTH 600 0
DWIDTH 5 0
BBX 3 6 1 -2
BITMAP
E0
A0
A0
A0
20
60
ENDCHAR
STARTCHAR 014C
ENCODING 332
SWIDTH 600 0
DWIDTH 5 0
BBX 5 8 0 0
BITMAP
70
00
70
90
88
88
90
70
ENDCHAR
STARTCHAR 014D
ENCODING 333
SWIDTH 600 0
DWIDTH 5 0
BBX 4 6 1 0
BITMAP
E0
00
E0
90
90
E0
ENDCHAR
STARTCHAR 014E
ENCODING 334
SWIDTH 600 0
DWIDTH 5 0
BBX 5 8 0 1
BITMAP
70
00
70
90
88
88
90
70
ENDCHAR
STARTCHAR 014F
ENCODING 335
SWIDTH 600 0
DWIDTH 5 0
BBX 4 6 1 0
BITMAP
A0
40
E0
90
90
E0
ENDCHAR
STARTCHAR 0150
ENCODING 336
SWIDTH 600 0
DWIDTH 5 0
BBX 5 8 0 0
BITMAP
48
00
70
90
88
88
90
70
ENDCHAR
STARTCHAR 0151
ENCODING 337
SWIDTH 600 0
DWIDTH 5 0
BBX 4 6 1 0
BITMAP
A0
00
E0
90
90
E0
ENDCHAR
STARTCHAR 0152
ENCODING 338
SWIDTH 600 0
DWIDTH 5 0
BBX 5 6 0 0
BITMAP
78
A0
B8
A0
A0
78
ENDCHAR
STARTCHAR 0153
ENCODING 339
SWIDTH 600 0
DWIDTH 5 0
BBX 5 4 0 0
BITMAP
58
B8
A0
50
ENDCHAR
STARTCHAR 0154
ENCODING 340
SWIDTH 600 0
DWIDTH 5 0
BBX 3 8 1 0
BITMAP
20
40
E0
A0
A0
C0
A0
A0
ENDCHAR
STARTCHAR 0155
ENCODING 341
SWIDTH 600 0
DWIDTH 5 0
BBX 5 6 0 0
BITMAP
20
00
58
60
40
E0
ENDCHAR
STARTCHAR 0156
ENCODING 342
SWIDTH 600 0
DWIDTH 5 0
BBX 3 8 1 -2
BITMAP
E0
A0
A0
C0
A0
A0
00
60
ENDCHAR
STARTCHAR 0157
ENCODING 343
SWIDTH 600 0
DWIDTH 5 0
BBX 5 6 0 -2
BITMAP
58
60
40
E0
00
60
ENDCHAR
STARTCHAR 0158
ENCODING 344
SWIDTH 600 0
DWIDTH 5 0
BBX 3 8 1 1
BITMAP
60
00
E0
A0
A0
C0
A0
A0
ENDCHAR
STARTCHAR 0159
ENCODING 345
SWIDTH 600 0
DWIDTH 5 0
BBX 5 6 0 0
BITMAP
50
20
58
60
40
E0
ENDCHAR
STARTCHAR 015A
ENCODING 346
SWIDTH 600 0
DWIDTH 5 0
BBX 3 8 1 0
BITMAP
20
40
E0
80
80
60
20
E0
ENDCHAR
STARTCHAR 015B
ENCODING 347
SWIDTH 600 0
DWIDTH 5 0
BBX 3 6 1 0
BITMAP
20
40
E0
80
60
E0
ENDCHAR
STARTCHAR 015C
ENCODING 348
SWIDTH 600 0
DWIDTH 5 0
BBX 3 8 1 0
BITMAP
40
20
E0
80
80
60
20
E0
ENDCHAR
STARTCHAR 015D
ENCODING 349
SWIDTH 600 0
DWIDTH 5 0
BBX 3 6 1 0
BITMAP
60
00
E0
80
60
E0
ENDCHAR
STARTCHAR 015E
ENCODING 350
SWIDTH 600 0
DWIDTH 5 0
BBX 3 8 1 -2
BITMAP
E0
80
80
60
20
E0
40
20
ENDCHAR
STARTCHAR 015F
ENCODING 351
SWIDTH 600 0
DWIDTH 5 0
BBX 3 6 1 -2
BITMAP
E0
80
60
E0
40
20
ENDCHAR
STARTCHAR 0160
ENCODING 352
SWIDTH 600 0
DWIDTH 5 0
BBX 3 8 1 1
BITMAP
60
00
E0
80
80
60
20
E0
ENDCHAR
STARTCHAR 0161
ENCODING 353
SWIDTH 600 0
DWIDTH 5 0
BBX 3 6 1 0
BITMAP
A0
40
E0
80
60
E0
ENDCHAR
STARTCHAR 0162
ENCODING 354
SWIDTH 600 0
DWIDTH 5 0
BBX 5 8 0 -2
BITMAP
F8
20
20
20
20
20
20
10
ENDCHAR
STARTCHAR 0163
ENCODING 355
SWIDTH 600 0
DWIDTH 5 0
BBX 3 7 1 -2
BITMAP
40
E0
40
40
60
40
20
ENDCHAR
STARTCHAR 0164
ENCODING 356
SWIDTH 600 0
DWIDTH 5 0
BBX 5 8 0 1
BITMAP
70
00
F8
20
20
20
20
20
ENDCHAR
STARTCHAR 0165
ENCODING 357
SWIDTH 600 0
DWIDTH 5 0
BBX 3 7 1 0
BITMAP
20
60
40
E0
40
40
60
ENDCHAR
STARTCHAR 0166
ENCODING 358
SWIDTH 600 0
DWIDTH 5 0
BBX 5 6 0 0
BITMAP
F8
20
20
20
20
20
ENDCHAR
STARTCHAR 0167
ENCODING 359
SWIDTH 600 0
DWIDTH 5 0
BBX 3 5 1 0
BITMAP
40
E0
40
40
60
ENDCHAR
STARTCHAR 0168
ENCODING 360
SWIDTH 600 0
DWIDTH 5 0
BBX 3 8 1 1
BITMAP
E0
00
A0
A0
A0
A0
A0
E0
ENDCHAR
STARTCHAR 0169
ENCODING 361
SWIDTH 600 0
DWIDTH 5 0
BBX 3 6 1 1
BITMAP
E0
00
A0
A0
A0
E0
ENDCHAR
STARTCHAR 016A
ENCODING 362
SWIDTH 600 0
DWIDTH 5 0
BBX 3 8 1 0
BITMAP
E0
00
A0
A0
A0
A0
A0
E0
ENDCHAR
STARTCHAR 016B
ENCODING 363
SWIDTH 600 0
DWIDTH 5 0
BBX 3 6 1 0
BITMAP
E0
00
A0
A0
A0
E0
ENDCHAR
STARTCHAR 016C
ENCODING 364
SWIDTH 600 0
DWIDTH 5 0
BBX 3 8 1 1
BITMAP
E0
00
A0
A0
A0
A0
A0
E0
ENDCHAR
STARTCHAR 016D
ENCODING 365
SWIDTH 600 0
DWIDTH 5 0
BBX 3 6 1 0
BITMAP
A0
40
A0
A0
A0
E0
ENDCHAR
STARTCHAR 016E
ENCODING 366
SWIDTH 600 0
DWIDTH 5 0
BBX 3 8 1 0
BITMAP
E0
40
A0
A0
A0
A0
A0
E0
ENDCHAR
STARTCHAR 016F
ENCODING 367
SWIDTH 600 0
DWIDTH 5 0
BBX 3 6 1 0
BITMAP
E0
40
A0
A0
A0
E0
ENDCHAR
STARTCHAR 0170
ENCODING 368
SWIDTH 600 0
DWIDTH 5 0
BBX 3 8 1 0
BITMAP
A0
00
A0
A0
A0
A0
A0
E0
ENDCHAR
STARTCHAR 0171
ENCODING 369
SWIDTH 600 0
DWIDTH 5 0
BBX 3 6 1 0
BITMAP
A0
00
A0
A0
A0
E0
ENDCHAR
STARTCHAR 0172
ENCODING 370
SWIDTH 600 0
DWIDTH 5 0
BBX 3 8 1 -2
BITMAP
A0
A0
A0
A0
A0
E0
40
40
ENDCHAR
STARTCHAR 0173
ENCODING 371
SWIDTH 600 0
DWIDTH 5 0
BBX 3 6 1 -2
BITMAP
A0
A0
A0
E0
20
20
ENDCHAR
STARTCHAR 0174
ENCODING 372
SWIDTH 600 0
DWIDTH 5 0
BBX 5 8 0 0
BITMAP
70
00
88
A8
B0
F0
70
50
ENDCHAR
STARTCHAR 0175
ENCODING 373
SWIDTH 600 0
DWIDTH 5 0
BBX 5 6 0 0
BITMAP
70
00
88
B0
F0
50
ENDCHAR
STARTCHAR 0176
ENCODING 374
SWIDTH 600 0
DWIDTH 5 0
BBX 4 8 0 0
BITMAP
70
00
90
50
60
20
20
20
ENDCHAR
STARTCHAR 0177
ENCODING 375
SWIDTH 600 0
DWIDTH 5 0
BBX 4 8 0 -2
BITMAP
70
00
90
50
50
20
20
C0
ENDCHAR
STARTCHAR 0178
ENCODING 376
SWIDTH 600 0
DWIDTH 5 0
BBX 4 8 0 0
BITMAP
50
00
90
50
60
20
20
20
ENDCHAR
STARTCHAR 0179
ENCODING 377
SWIDTH 600 0
DWIDTH 5 0
BBX 4 8 1 0
BITMAP
20
40
E0
20
40
40
80
F0
ENDCHAR
STARTCHAR 017A
ENCODING 378
SWIDTH 600 0
DWIDTH 5 0
BBX 3 6 1 0
BITMAP
40
00
E0
40
40
E0
ENDCHAR
STARTCHAR 017B
ENCODING 379
SWIDTH 600 0
DWIDTH 5 0
BBX 4 8 1 0
BITMAP
40
00
E0
20
40
40
80
F0
ENDCHAR
STARTCHAR 017C
ENCODING 380
SWIDTH 600 0
DWIDTH 5 0
BBX 3 6 1 0
BITMAP
40
00
E0
40
40
E0
ENDCHAR
STARTCHAR 017D
ENCODING 381
SWIDTH 600 0
DWIDTH 5 0
BBX 4 8 1 1
BITMAP
E0
00
E0
20
40
40
80
F0
ENDCHAR
STARTCHAR 017E
ENCODING 382
SWIDTH 600 0
DWIDTH 5 0
BBX 3 6 1 0
BITMAP
A0
40
E0
40
40
E0
ENDCHAR
STARTCHAR 018F
ENCODING 399
SWIDTH 600 0
DWIDTH 5 0
BBX 4 6 1 0
BITMAP
E0
20
F0
90
A0
E0
ENDCHAR
STARTCHAR 01A0
ENCODING 416
SWIDTH 600 0
DWIDTH 5 0
BBX 5 7 0 0
BITMAP
08
70
90
88
88
90
70
ENDCHAR
STARTCHAR 01A1
ENCODING 417
SWIDTH 600 0
DWIDTH 5 0
BBX 4 5 1 0
BITMAP
10
E0
90
90
E0
ENDCHAR
STARTCHAR 01AF
ENCODING 431
SWIDTH 600 0
DWIDTH 5 0
BBX 5 7 1 0
BITMAP
08
B0
A0
A0
A0
A0
E0
ENDCHAR
STARTCHAR 01B0
ENCODING 432
SWIDTH 600 0
DWIDTH 5 0
BBX 4 4 1 1
BITMAP
B0
A0
A0
E0
ENDCHAR
STARTCHAR 01CD
ENCODING 461
SWIDTH 600 0
DWIDTH 5 0
BBX 5 8 0 1
BITMAP
70
00
20
60
50
50
70
88
ENDCHAR
STARTCHAR 01CE
ENCODING 462
SWIDTH 600 0
DWIDTH 5 0
BBX 4 6 1 0
BITMAP
A0
40
E0
20
E0
F0
ENDCHAR
STARTCHAR 01CF
ENCODING 463
SWIDTH 600 0
DWIDTH 5 0
BBX 3 8 1 1
BITMAP
E0
00
40
40
40
40
40
40
ENDCHAR
STARTCHAR 01D0
ENCODING 464
SWIDTH 600 0
DWIDTH 5 0
BBX 3 6 1 0
BITMAP
A0
40
C0
40
40
E0
ENDCHAR
STARTCHAR 01D1
ENCODING 465
SWIDTH 600 0
DWIDTH 5 0
BBX 5 8 0 1
BITMAP
70
00
70
90
88
88
90
70
ENDCHAR
STARTCHAR 01D2
ENCODING 466
SWIDTH 600 0
DWIDTH 5 0
BBX 4 6 1 0
BITMAP
A0
40
E0
90
90
E0
ENDCHAR
STARTCHAR 01D3
ENCODING 467
SWIDTH 600 0
DWIDTH 5 0
BBX 3 8 1 1
BITMAP
E0
00
A0
A0
A0
A0
A0
E0
ENDCHAR
STARTCHAR 01D4
ENCODING 468
SWIDTH 600 0
DWIDTH 5 0
BBX 3 6 1 0
BITMAP
A0
40
A0
A0
A0
E0
ENDCHAR
STARTCHAR 01D5
ENCODING 469
SWIDTH 600 0
DWIDTH 5 0
BBX 3 9 1 0
BITMAP
E0
A0
00
A0
A0
A0
A0
A0
E0
ENDCHAR
STARTCHAR 01D6
ENCODING 470
SWIDTH 600 0
DWIDTH 5 0
BBX 3 8 1 0
BITMAP
E0
00
A0
00
A0
A0
A0
E0
ENDCHAR
STARTCHAR 01D7
ENCODING 471
SWIDTH 600 0
DWIDTH 5 0
BBX 3 9 1 1
BITMAP
60
A0
00
A0
A0
A0
A0
A0
E0
ENDCHAR
STARTCHAR 01D8
ENCODING 472
SWIDTH 600 0
DWIDTH 5 0
BBX 3 8 1 0
BITMAP
20
40
A0
00
A0
A0
A0
E0
ENDCHAR
STARTCHAR 01D9
ENCODING 473
SWIDTH 600 0
DWIDTH 5 0
BBX 3 10 1 0
BITMAP
80
60
A0
00
A0
A0
A0
A0
A0
E0
ENDCHAR
STARTCHAR 01DA
ENCODING 474
SWIDTH 600 0
DWIDTH 5 0
BBX 3 8 1 0
BITMAP
A0
40
A0
00
A0
A0
A0
E0
ENDCHAR
STARTCHAR 01DB
ENCODING 475
SWIDTH 600 0
DWIDTH 5 0
BBX 3 10 1 0
BITMAP
80
40
A0
00
A0
A0
A0
A0
A0
E0
ENDCHAR
STARTCHAR 01DC
ENCODING 476
SWIDTH 600 0
DWIDTH 5 0
BBX 3 8 1 0
BITMAP
80
40
A0
00
A0
A0
A0
E0
ENDCHAR
STARTCHAR 01E6
ENCODING 486
SWIDTH 600 0
DWIDTH 5 0
BBX 5 8 0 1
BITMAP
30
00
30
40
80
98
88
78
ENDCHAR
STARTCHAR 01E7
ENCODING 487
SWIDTH 600 0
DWIDTH 5 0
BBX 4 8 0 -2
BITMAP
50
20
70
90
90
70
10
70
ENDCHAR
STARTCHAR 01EA
ENCODING 490
SWIDTH 600 0
DWIDTH 5 0
BBX 5 8 0 -2
BITMAP
70
90
88
88
90
70
20
20
ENDCHAR
STARTCHAR 01EB
ENCODING 491
SWIDTH 600 0
DWIDTH 5 0
BBX 4 6 1 -2
BITMAP
E0
90
90
E0
80
40
ENDCHAR
STARTCHAR 01F0
ENCODING 496
SWIDTH 600 0
DWIDTH 5 0
BBX 3 8 1 -2
BITMAP
60
00
C0
40
40
40
40
C0
ENDCHAR
STARTCHAR 01F8
ENCODING 504
SWIDTH 600 0
DWIDTH 5 0
BBX 3 8 1 0
BITMAP
80
40
A0
A0
E0
E0
A0
A0
ENDCHAR
STARTCHAR 01F9
ENCODING 505
SWIDTH 600 0
DWIDTH 5 0
BBX 3 6 1 0
BITMAP
40
00
E0
A0
A0
A0
ENDCHAR
STARTCHAR 0218
ENCODING 536
SWIDTH 600 0
DWIDTH 5 0
BBX 3 8 1 -2
BITMAP
E0
80
80
60
20
E0
00
40
ENDCHAR
STARTCHAR 0219
ENCODING 537
SWIDTH 600 0
DWIDTH 5 0
BBX 3 6 1 -2
BITMAP
E0
80
60
E0
00
40
ENDCHAR
STARTCHAR 021A
ENCODING 538
SWIDTH 600 0
DWIDTH 5 0
BBX 5 8 0 -2
BITMAP
F8
20
20
20
20
20
00
20
ENDCHAR
STARTCHAR 021B
ENCODING 539
SWIDTH 600 0
DWIDTH 5 0
BBX 3 7 1 -2
BITMAP
40
E0
40
40
60
00
60
ENDCHAR
STARTCHAR 0226
ENCODING 550
SWIDTH 600 0
DWIDTH 5 0
BBX 5 8 0 0
BITMAP
20
00
20
60
50
50
70
88
ENDCHAR
STARTCHAR 0227
ENCODING 551
SWIDTH 600 0
DWIDTH 5 0
BBX 4 6 1 0
BITMAP
40
00
E0
20
E0
F0
ENDCHAR
STARTCHAR 022E
ENCODING 558
SWIDTH 600 0
DWIDTH 5 0
BBX 5 8 0 0
BITMAP
20
00
70
90
88
88
90
70
ENDCHAR
STARTCHAR 022F
ENCODING 559
SWIDTH 600 0
DWIDTH 5 0
BBX 4 6 1 0
BITMAP
40
00
E0
90
90
E0
ENDCHAR
STARTCHAR 0232
ENCODING 562
SWIDTH 600 0
DWIDTH 5 0
BBX 4 8 0 0
BITMAP
70
00
90
50
60
20
20
20
ENDCHAR
STARTCHAR 0233
ENCODING 563
SWIDTH 600 0
DWIDTH 5 0
BBX 4 8 0 -2
BITMAP
70
00
90
50
50
20
20
C0
ENDCHAR
STARTCHAR 0237
ENCODING 567
SWIDTH 600 0
DWIDTH 5 0
BBX 2 6 1 -2
BITMAP
C0
40
40
40
40
C0
ENDCHAR
STARTCHAR 0259
ENCODING 601
SWIDTH 600 0
DWIDTH 5 0
BBX 3 4 1 0
BITMAP
E0
E0
A0
E0
ENDCHAR
STARTCHAR 02B9
ENCODING 697
SWIDTH 600 0
DWIDTH 5 0
BBX 1 3 2 3
BITMAP
80
80
80
ENDCHAR
STARTCHAR 02BA
ENCODING 698
SWIDTH 600 0
DWIDTH 5 0
BBX 3 3 1 3
BITMAP
A0
A0
A0
ENDCHAR
STARTCHAR 02BB
ENCODING 699
SWIDTH 600 0
DWIDTH 5 0
BBX 1 2 2 4
BITMAP
80
80
ENDCHAR
STARTCHAR 02BC
ENCODING 700
SWIDTH 600 0
DWIDTH 5 0
BBX 1 2 2 4
BITMAP
80
80
ENDCHAR
STARTCHAR 02BE
ENCODING 702
SWIDTH 600 0
DWIDTH 5 0
BBX 3 4 1 2
BITMAP
C0
20
40
80
ENDCHAR
STARTCHAR 02BF
ENCODING 703
SWIDTH 600 0
DWIDTH 5 0
BBX 2 3 1 2
BITMAP
40
80
80
ENDCHAR
STARTCHAR 02C6
ENCODING 710
SWIDTH 600 0
DWIDTH 5 0
BBX 3 2 1 4
BITMAP
40
A0
ENDCHAR
STARTCHAR 02C7
ENCODING 711
SWIDTH 600 0
DWIDTH 5 0
BBX 3 2 1 4
BITMAP
A0
40
ENDCHAR
STARTCHAR 02C8
ENCODING 712
SWIDTH 600 0
DWIDTH 5 0
BBX 1 3 2 3
BITMAP
80
80
80
ENDCHAR
STARTCHAR 02CC
ENCODING 716
SWIDTH 600 0
DWIDTH 5 0
BBX 1 3 2 -2
BITMAP
80
80
80
ENDCHAR
STARTCHAR 02CD
ENCODING 717
SWIDTH 600 0
DWIDTH 5 0
BBX 3 1 1 -2
BITMAP
E0
ENDCHAR
STARTCHAR 02D8
ENCODING 728
SWIDTH 600 0
DWIDTH 5 0
BBX 3 2 1 4
BITMAP
A0
40
ENDCHAR
STARTCHAR 02D9
ENCODING 729
SWIDTH 600 0
DWIDTH 5 0
BBX 1 1 2 5
BITMAP
80
ENDCHAR
STARTCHAR 02DA
ENCODING 730
SWIDTH 600 0
DWIDTH 5 0
BBX 3 1 1 5
BITMAP
E0
ENDCHAR
STARTCHAR 02DB
ENCODING 731
SWIDTH 600 0
DWIDTH 5 0
BBX 1 1 2 -1
BITMAP
80
ENDCHAR
STARTCHAR 02DC
ENCODING 732
SWIDTH 600 0
DWIDTH 5 0
BBX 3 2 1 5
BITMAP
E0
20
ENDCHAR
STARTCHAR 02DD
ENCODING 733
SWIDTH 600 0
DWIDTH 5 0
BBX 3 2 1 4
BITMAP
A0
80
ENDCHAR
STARTCHAR 0300
ENCODING 768
SWIDTH 0 0
DWIDTH 0 0
BBX 2 2 -1 4
BITMAP
80
40
ENDCHAR
STARTCHAR 0301
ENCODING 769
SWIDTH 0 0
DWIDTH 0 0
BBX 2 2 -1 4
BITMAP
40
80
ENDCHAR
STARTCHAR 0302
ENCODING 770
SWIDTH 0 0
DWIDTH 0 0
BBX 2 1 -1 4
BITMAP
C0
ENDCHAR
STARTCHAR 0303
ENCODING 771
SWIDTH 0 0
DWIDTH 0 0
BBX 3 3 -2 4
BITMAP
40
E0
A0
ENDCHAR
STARTCHAR 0304
ENCODING 772
SWIDTH 0 0
DWIDTH 0 0
BBX 2 1 -1 5
BITMAP
C0
ENDCHAR
STARTCHAR 0306
ENCODING 774
SWIDTH 0 0
DWIDTH 0 0
BBX 3 2 -2 4
BITMAP
A0
40
ENDCHAR
STARTCHAR 0307
ENCODING 775
SWIDTH 0 0
DWIDTH 0 0
BBX 2 1 -1 5
BITMAP
C0
ENDCHAR
STARTCHAR 0308
ENCODING 776
SWIDTH 0 0
DWIDTH 0 0
BBX 2 1 -1 5
BITMAP
C0
ENDCHAR
STARTCHAR 0309
ENCODING 777
SWIDTH 0 0
DWIDTH 0 0
BBX 2 2 -1 4
BITMAP
C0
80
ENDCHAR
STARTCHAR 030A
ENCODING 778
SWIDTH 0 0
DWIDTH 0 0
BBX 2 1 -1 5
BITMAP
C0
ENDCHAR
STARTCHAR 030B
ENCODING 779
SWIDTH 0 0
DWIDTH 0 0
BBX 3 1 -1 4
BITMAP
A0
ENDCHAR
STARTCHAR 030C
ENCODING 780
SWIDTH 0 0
DWIDTH 0 0
BBX 3 2 -2 4
BITMAP
80
60
ENDCHAR
STARTCHAR 0312
ENCODING 786
SWIDTH 0 0
DWIDTH 0 0
BBX 2 2 -1 4
BITMAP
C0
C0
ENDCHAR
STARTCHAR 0315
ENCODING 789
SWIDTH 0 0
DWIDTH 0 0
BBX 1 2 0 4
BITMAP
80
80
ENDCHAR
STARTCHAR 0323
ENCODING 803
SWIDTH 0 0
DWIDTH 0 0
BBX 2 1 -1 -2
BITMAP
C0
ENDCHAR
STARTCHAR 0324
ENCODING 804
SWIDTH 0 0
DWIDTH 0 0
BBX 2 1 -1 -2
BITMAP
C0
ENDCHAR
STARTCHAR 0326
ENCODING 806
SWIDTH 0 0
DWIDTH 0 0
BBX 2 2 -1 -3
BITMAP
C0
80
ENDCHAR
STARTCHAR 0327
ENCODING 807
SWIDTH 0 0
DWIDTH 0 0
BBX 1 1 0 -1
BITMAP
80
ENDCHAR
STARTCHAR 0328
ENCODING 808
SWIDTH 0 0
DWIDTH 0 0
BBX 1 2 -1 -2
BITMAP
80
80
ENDCHAR
STARTCHAR 032D
ENCODING 813
SWIDTH 0 0
DWIDTH 0 0
BBX 2 1 -1 -2
BITMAP
C0
ENDCHAR
STARTCHAR 032E
ENCODING 814
SWIDTH 0 0
DWIDTH 0 0
BBX 3 2 -2 -3
BITMAP
A0
40
ENDCHAR
STARTCHAR 0331
ENCODING 817
SWIDTH 0 0
DWIDTH 0 0
BBX 2 1 -1 -2
BITMAP
C0
ENDCHAR
STARTCHAR 0E3F
ENCODING 3647
SWIDTH 600 0
DWIDTH 5 0
BBX 4 8 1 -1
BITMAP
40
E0
D0
E0
E0
D0
E0
40
ENDCHAR
STARTCHAR 1E06
ENCODING 7686
SWIDTH 600 0
DWIDTH 5 0
BBX 4 8 1 -2
BITMAP
E0
A0
E0
A0
90
E0
00
E0
ENDCHAR
STARTCHAR 1E07
ENCODING 7687
SWIDTH 600 0
DWIDTH 5 0
BBX 4 8 1 -2
BITMAP
80
80
E0
90
90
E0
00
E0
ENDCHAR
STARTCHAR 1E0C
ENCODING 7692
SWIDTH 600 0
DWIDTH 5 0
BBX 4 8 1 -2
BITMAP
E0
A0
90
90
A0
C0
00
40
ENDCHAR
STARTCHAR 1E0D
ENCODING 7693
SWIDTH 600 0
DWIDTH 5 0
BBX 4 8 0 -2
BITMAP
10
10
70
90
90
70
00
20
ENDCHAR
STARTCHAR 1E0E
ENCODING 7694
SWIDTH 600 0
DWIDTH 5 0
BBX 4 8 1 -2
BITMAP
E0
A0
90
90
A0
C0
00
E0
ENDCHAR
STARTCHAR 1E0F
ENCODING 7695
SWIDTH 600 0
DWIDTH 5 0
BBX 4 8 0 -2
BITMAP
10
10
70
90
90
70
00
70
ENDCHAR
STARTCHAR 1E12
ENCODING 7698
SWIDTH 600 0
DWIDTH 5 0
BBX 4 8 1 -2
BITMAP
E0
A0
90
90
A0
C0
00
C0
ENDCHAR
STARTCHAR 1E13
ENCODING 7699
SWIDTH 600 0
DWIDTH 5 0
BBX 4 8 0 -2
BITMAP
10
10
70
90
90
70
00
70
ENDCHAR
STARTCHAR 1E20
ENCODING 7712
SWIDTH 600 0
DWIDTH 5 0
BBX 5 8 0 0
BITMAP
70
00
30
40
80
98
88
78
ENDCHAR
STARTCHAR 1E21
ENCODING 7713
SWIDTH 600 0
DWIDTH 5 0
BBX 4 8 0 -2
BITMAP
70
00
70
90
90
70
10
70
ENDCHAR
STARTCHAR 1E24
ENCODING 7716
SWIDTH 600 0
DWIDTH 5 0
BBX 3 8 1 -2
BITMAP
A0
A0
E0
A0
A0
A0
00
40
ENDCHAR
STARTCHAR 1E25
ENCODING 7717
SWIDTH 600 0
DWIDTH 5 0
BBX 3 8 1 -2
BITMAP
80
80
E0
A0
A0
A0
00
40
ENDCHAR
STARTCHAR 1E28
ENCODING 7720
SWIDTH 600 0
DWIDTH 5 0
BBX 4 8 0 -2
BITMAP
90
90
70
90
90
90
80
40
ENDCHAR
STARTCHAR 1E29
ENCODING 7721
SWIDTH 600 0
DWIDTH 5 0
BBX 4 8 0 -2
BITMAP
40
40
70
50
50
50
80
40
ENDCHAR
STARTCHAR 1E2A
ENCODING 7722
SWIDTH 600 0
DWIDTH 5 0
BBX 3 9 1 -3
BITMAP
A0
A0
E0
A0
A0
A0
00
A0
40
ENDCHAR
STARTCHAR 1E2B
ENCODING 7723
SWIDTH 600 0
DWIDTH 5 0
BBX 3 9 1 -3
BITMAP
80
80
E0
A0
A0
A0
00
A0
40
ENDCHAR
STARTCHAR 1E32
ENCODING 7730
SWIDTH 600 0
DWIDTH 5 0
BBX 4 8 1 -2
BITMAP
A0
A0
C0
C0
A0
90
00
40
ENDCHAR
STARTCHAR 1E33
ENCODING 7731
SWIDTH 600 0
DWIDTH 5 0
BBX 3 8 1 -2
BITMAP
80
80
A0
C0
C0
A0
00
40
ENDCHAR
STARTCHAR 1E34
ENCODING 7732
SWIDTH 600 0
DWIDTH 5 0
BBX 4 8 1 -2
BITMAP
A0
A0
C0
C0
A0
90
00
E0
ENDCHAR
STARTCHAR 1E35
ENCODING 7733
SWIDTH 600 0
DWIDTH 5 0
BBX 3 8 1 -2
BITMAP
80
80
A0
C0
C0
A0
00
E0
ENDCHAR
STARTCHAR 1E36
ENCODING 7734
SWIDTH 600 0
DWIDTH 5 0
BBX 4 8 1 -2
BITMAP
80
80
80
80
80
F0
00
40
ENDCHAR
STARTCHAR 1E37
ENCODING 7735
SWIDTH 600 0
DWIDTH 5 0
BBX 4 8 0 -2
BITMAP
E0
20
20
20
20
30
00
20
ENDCHAR
STARTCHAR 1E38
ENCODING 7736
SWIDTH 600 0
DWIDTH 5 0
BBX 5 10 0 -2
BITMAP
E0
00
40
40
40
40
40
78
00
20
ENDCHAR
STARTCHAR 1E39
ENCODING 7737
SWIDTH 600 0
DWIDTH 5 0
BBX 4 10 0 -2
BITMAP
70
00
E0
20
20
20
20
30
00
20
ENDCHAR
STARTCHAR 1E3A
ENCODING 7738
SWIDTH 600 0
DWIDTH 5 0
BBX 4 8 1 -2
BITMAP
80
80
80
80
80
F0
00
E0
ENDCHAR
STARTCHAR 1E3B
ENCODING 7739
SWIDTH 600 0
DWIDTH 5 0
BBX 4 8 0 -2
BITMAP
E0
20
20
20
20
30
00
70
ENDCHAR
STARTCHAR 1E3C
ENCODING 7740
SWIDTH 600 0
DWIDTH 5 0
BBX 4 8 1 -2
BITMAP
80
80
80
80
80
F0
00
E0
ENDCHAR
STARTCHAR 1E3D
ENCODING 7741
SWIDTH 600 0
DWIDTH 5 0
BBX 4 8 0 -2
BITMAP
E0
20
20
20
20
30
00
70
ENDCHAR
STARTCHAR 1E3E
ENCODING 7742
SWIDTH 600 0
DWIDTH 5 0
BBX 4 8 1 0
BITMAP
20
40
A0
A0
E0
E0
90
90
ENDCHAR
STARTCHAR 1E3F
ENCODING 7743
SWIDTH 600 0
DWIDTH 5 0
BBX 5 6 0 0
BITMAP
20
00
F8
A8
A8
A8
ENDCHAR
STARTCHAR 1E40
ENCODING 7744
SWIDTH 600 0
DWIDTH 5 0
BBX 4 8 1 0
BITMAP
40
00
A0
A0
E0
E0
90
90
ENDCHAR
STARTCHAR 1E41
ENCODING 7745
SWIDTH 600 0
DWIDTH 5 0
BBX 5 6 0 0
BITMAP
20
00
F8
A8
A8
A8
ENDCHAR
STARTCHAR 1E42
ENCODING 7746
SWIDTH 600 0
DWIDTH 5 0
BBX 4 8 1 -2
BITMAP
A0
A0
E0
E0
90
90
00
40
ENDCHAR
STARTCHAR 1E43
ENCODING 7747
SWIDTH 600 0
DWIDTH 5 0
BBX 5 6 0 -2
BITMAP
F8
A8
A8
A8
00
20
ENDCHAR
STARTCHAR 1E44
ENCODING 7748
SWIDTH 600 0
DWIDTH 5 0
BBX 3 8 1 0
BITMAP
40
00
A0
A0
E0
E0
A0
A0
ENDCHAR
STARTCHAR 1E45
ENCODING 7749
SWIDTH 600 0
DWIDTH 5 0
BBX 3 6 1 0
BITMAP
40
00
E0
A0
A0
A0
ENDCHAR
STARTCHAR 1E46
ENCODING 7750
SWIDTH 600 0
DWIDTH 5 0
BBX 3 8 1 -2
BITMAP
A0
A0
E0
E0
A0
A0
00
40
ENDCHAR
STARTCHAR 1E47
ENCODING 7751
SWIDTH 600 0
DWIDTH 5 0
BBX 3 6 1 -2
BITMAP
E0
A0
A0
A0
00
40
ENDCHAR
STARTCHAR 1E48
ENCODING 7752
SWIDTH 600 0
DWIDTH 5 0
BBX 3 8 1 -2
BITMAP
A0
A0
E0
E0
A0
A0
00
E0
ENDCHAR
STARTCHAR 1E49
ENCODING 7753
SWIDTH 600 0
DWIDTH 5 0
BBX 3 6 1 -2
BITMAP
E0
A0
A0
A0
00
E0
ENDCHAR
STARTCHAR 1E4A
ENCODING 7754
SWIDTH 600 0
DWIDTH 5 0
BBX 3 8 1 -2
BITMAP
A0
A0
E0
E0
A0
A0
00
E0
ENDCHAR
STARTCHAR 1E4B
ENCODING 7755
SWIDTH 600 0
DWIDTH 5 0
BBX 3 6 1 -2
BITMAP
E0
A0
A0
A0
00
E0
ENDCHAR
STARTCHAR 1E58
ENCODING 7768
SWIDTH 600 0
DWIDTH 5 0
BBX 3 8 1 0
BITMAP
40
00
E0
A0
A0
C0
A0
A0
ENDCHAR
STARTCHAR 1E59
ENCODING 7769
SWIDTH 600 0
DWIDTH 5 0
BBX 5 6 0 0
BITMAP
20
00
58
60
40
E0
ENDCHAR
STARTCHAR 1E5A
ENCODING 7770
SWIDTH 600 0
DWIDTH 5 0
BBX 3 8 1 -2
BITMAP
E0
A0
A0
C0
A0
A0
00
40
ENDCHAR
STARTCHAR 1E5B
ENCODING 7771
SWIDTH 600 0
DWIDTH 5 0
BBX 5 6 0 -2
BITMAP
58
60
40
E0
00
40
ENDCHAR
STARTCHAR 1E5C
ENCODING 7772
SWIDTH 600 0
DWIDTH 5 0
BBX 3 10 1 -2
BITMAP
E0
00
E0
A0
A0
C0
A0
A0
00
40
ENDCHAR
STARTCHAR 1E5D
ENCODING 7773
SWIDTH 600 0
DWIDTH 5 0
BBX 5 8 0 -2
BITMAP
70
00
58
60
40
E0
00
40
ENDCHAR
STARTCHAR 1E5E
ENCODING 7774
SWIDTH 600 0
DWIDTH 5 0
BBX 3 8 1 -2
BITMAP
E0
A0
A0
C0
A0
A0
00
E0
ENDCHAR
STARTCHAR 1E5F
ENCODING 7775
SWIDTH 600 0
DWIDTH 5 0
BBX 5 6 0 -2
BITMAP
58
60
40
E0
00
E0
ENDCHAR
STARTCHAR 1E62
ENCODING 7778
SWIDTH 600 0
DWIDTH 5 0
BBX 3 8 1 -2
BITMAP
E0
80
80
60
20
E0
00
40
ENDCHAR
STARTCHAR 1E63
ENCODING 7779
SWIDTH 600 0
DWIDTH 5 0
BBX 3 6 1 -2
BITMAP
E0
80
60
E0
00
40
ENDCHAR
STARTCHAR 1E6C
ENCODING 7788
SWIDTH 600 0
DWIDTH 5 0
BBX 5 8 0 -2
BITMAP
F8
20
20
20
20
20
00
20
ENDCHAR
STARTCHAR 1E6D
ENCODING 7789
SWIDTH 600 0
DWIDTH 5 0
BBX 3 7 1 -2
BITMAP
40
E0
40
40
60
00
40
ENDCHAR
STARTCHAR 1E6E
ENCODING 7790
SWIDTH 600 0
DWIDTH 5 0
BBX 5 8 0 -2
BITMAP
F8
20
20
20
20
20
00
70
ENDCHAR
STARTCHAR 1E6F
ENCODING 7791
SWIDTH 600 0
DWIDTH 5 0
BBX 3 7 1 -2
BITMAP
40
E0
40
40
60
00
E0
ENDCHAR
STARTCHAR 1E70
ENCODING 7792
SWIDTH 600 0
DWIDTH 5 0
BBX 5 8 0 -2
BITMAP
F8
20
20
20
20
20
00
70
ENDCHAR
STARTCHAR 1E71
ENCODING 7793
SWIDTH 600 0
DWIDTH 5 0
BBX 3 7 1 -2
BITMAP
40
E0
40
40
60
00
E0
ENDCHAR
STARTCHAR 1E7E
ENCODING 7806
SWIDTH 600 0
DWIDTH 5 0
BBX 5 8 0 -2
BITMAP
88
50
50
50
60
20
00
20
ENDCHAR
STARTCHAR 1E7F
ENCODING 7807
SWIDTH 600 0
DWIDTH 5 0
BBX 4 6 0 -2
BITMAP
90
50
50
20
00
20
ENDCHAR
STARTCHAR 1E80
ENCODING 7808
SWIDTH 600 0
DWIDTH 5 0
BBX 5 8 0 0
BITMAP
40
20
88
A8
B0
F0
70
50
ENDCHAR
STARTCHAR 1E81
ENCODING 7809
SWIDTH 600 0
DWIDTH 5 0
BBX 5 6 0 0
BITMAP
20
00
88
B0
F0
50
ENDCHAR
STARTCHAR 1E82
ENCODING 7810
SWIDTH 600 0
DWIDTH 5 0
BBX 5 8 0 0
BITMAP
10
20
88
A8
B0
F0
70
50
ENDCHAR
STARTCHAR 1E83
ENCODING 7811
SWIDTH 600 0
DWIDTH 5 0
BBX 5 6 0 0
BITMAP
20
00
88
B0
F0
50
ENDCHAR
STARTCHAR 1E84
ENCODING 7812
SWIDTH 600 0
DWIDTH 5 0
BBX 5 8 0 0
BITMAP
50
00
88
A8
B0
F0
70
50
ENDCHAR
STARTCHAR 1E85
ENCODING 7813
SWIDTH 600 0
DWIDTH 5 0
BBX 5 6 0 0
BITMAP
50
00
88
B0
F0
50
ENDCHAR
STARTCHAR 1E8C
ENCODING 7820
SWIDTH 600 0
DWIDTH 5 0
BBX 4 8 0 0
BITMAP
50
00
50
50
20
20
50
90
ENDCHAR
STARTCHAR 1E8D
ENCODING 7821
SWIDTH 600 0
DWIDTH 5 0
BBX 3 6 1 0
BITMAP
A0
00
A0
40
C0
A0
ENDCHAR
STARTCHAR 1E8E
ENCODING 7822
SWIDTH 600 0
DWIDTH 5 0
BBX 4 8 0 0
BITMAP
20
00
90
50
60
20
20
20
ENDCHAR
STARTCHAR 1E8F
ENCODING 7823
SWIDTH 600 0
DWIDTH 5 0
BBX 4 8 0 -2
BITMAP
20
00
90
50
50
20
20
C0
ENDCHAR
STARTCHAR 1E90
ENCODING 7824
SWIDTH 600 0
DWIDTH 5 0
BBX 4 8 1 0
BITMAP
E0
00
E0
20
40
40
80
F0
ENDCHAR
STARTCHAR 1E91
ENCODING 7825
SWIDTH 600 0
DWIDTH 5 0
BBX 3 6 1 0
BITMAP
E0
00
E0
40
40
E0
ENDCHAR
STARTCHAR 1E92
ENCODING 7826
SWIDTH 600 0
DWIDTH 5 0
BBX 4 8 1 -2
BITMAP
E0
20
40
40
80
F0
00
40
ENDCHAR
STARTCHAR 1E93
ENCODING 7827
SWIDTH 600 0
DWIDTH 5 0
BBX 3 6 1 -2
BITMAP
E0
40
40
E0
00
40
ENDCHAR
STARTCHAR 1E94
ENCODING 7828
SWIDTH 600 0
DWIDTH 5 0
BBX 4 8 1 -2
BITMAP
E0
20
40
40
80
F0
00
E0
ENDCHAR
STARTCHAR 1E95
ENCODING 7829
SWIDTH 600 0
DWIDTH 5 0
BBX 3 6 1 -2
BITMAP
E0
40
40
E0
00
E0
ENDCHAR
STARTCHAR 1E96
ENCODING 7830
SWIDTH 600 0
DWIDTH 5 0
BBX 3 8 1 -2
BITMAP
80
80
E0
A0
A0
A0
00
E0
ENDCHAR
STARTCHAR 1E9E
ENCODING 7838
SWIDTH 600 0
DWIDTH 5 0
BBX 4 6 1 0
BITMAP
E0
A0
A0
A0
90
B0
ENDCHAR
STARTCHAR 1EA0
ENCODING 7840
SWIDTH 600 0
DWIDTH 5 0
BBX 5 8 0 -2
BITMAP
20
60
50
50
70
88
00
20
ENDCHAR
STARTCHAR 1EA1
ENCODING 7841
SWIDTH 600 0
DWIDTH 5 0
BBX 4 6 1 -2
BITMAP
E0
20
E0
F0
00
40
ENDCHAR
STARTCHAR 1EA2
ENCODING 7842
SWIDTH 600 0
DWIDTH 5 0
BBX 5 8 0 0
BITMAP
10
20
20
60
50
50
70
88
ENDCHAR
STARTCHAR 1EA3
ENCODING 7843
SWIDTH 600 0
DWIDTH 5 0
BBX 4 6 1 0
BITMAP
40
00
E0
20
E0
F0
ENDCHAR
STARTCHAR 1EA4
ENCODING 7844
SWIDTH 600 0
DWIDTH 5 0
BBX 5 9 0 0
BITMAP
08
20
50
20
60
50
50
70
88
ENDCHAR
STARTCHAR 1EA5
ENCODING 7845
SWIDTH 600 0
DWIDTH 5 0
BBX 4 7 1 0
BITMAP
10
40
A0
E0
20
E0
F0
ENDCHAR
STARTCHAR 1EA6
ENCODING 7846
SWIDTH 600 0
DWIDTH 5 0
BBX 5 9 0 0
BITMAP
10
20
50
20
60
50
50
70
88
ENDCHAR
STARTCHAR 1EA7
ENCODING 7847
SWIDTH 600 0
DWIDTH 5 0
BBX 4 7 1 0
BITMAP
20
40
A0
E0
20
E0
F0
ENDCHAR
STARTCHAR 1EA8
ENCODING 7848
SWIDTH 600 0
DWIDTH 5 0
BBX 5 9 0 0
BITMAP
08
30
50
20
60
50
50
70
88
ENDCHAR
STARTCHAR 1EA9
ENCODING 7849
SWIDTH 600 0
DWIDTH 5 0
BBX 4 7 1 0
BITMAP
10
60
A0
E0
20
E0
F0
ENDCHAR
STARTCHAR 1EAA
ENCODING 7850
SWIDTH 600 0
DWIDTH 5 0
BBX 5 10 0 0
BITMAP
20
50
20
10
20
60
50
50
70
88
ENDCHAR
STARTCHAR 1EAB
ENCODING 7851
SWIDTH 600 0
DWIDTH 5 0
BBX 4 8 1 0
BITMAP
E0
A0
40
A0
E0
20
E0
F0
ENDCHAR
STARTCHAR 1EAC
ENCODING 7852
SWIDTH 600 0
DWIDTH 5 0
BBX 5 10 0 -2
BITMAP
20
50
20
60
50
50
70
88
00
20
ENDCHAR
STARTCHAR 1EAD
ENCODING 7853
SWIDTH 600 0
DWIDTH 5 0
BBX 4 8 1 -2
BITMAP
C0
20
E0
20
E0
F0
00
40
ENDCHAR
STARTCHAR 1EAE
ENCODING 7854
SWIDTH 600 0
DWIDTH 5 0
BBX 5 10 0 0
BITMAP
10
20
70
00
20
60
50
50
70
88
ENDCHAR
STARTCHAR 1EAF
ENCODING 7855
SWIDTH 600 0
DWIDTH 5 0
BBX 4 7 1 1
BITMAP
60
A0
40
E0
20
E0
F0
ENDCHAR
STARTCHAR 1EB0
ENCODING 7856
SWIDTH 600 0
DWIDTH 5 0
BBX 5 10 0 0
BITMAP
40
20
70
00
20
60
50
50
70
88
ENDCHAR
STARTCHAR 1EB1
ENCODING 7857
SWIDTH 600 0
DWIDTH 5 0
BBX 4 8 1 0
BITMAP
80
40
A0
40
E0
20
E0
F0
ENDCHAR
STARTCHAR 1EB2
ENCODING 7858
SWIDTH 600 0
DWIDTH 5 0
BBX 5 10 0 0
BITMAP
20
20
70
00
20
60
50
50
70
88
ENDCHAR
STARTCHAR 1EB3
ENCODING 7859
SWIDTH 600 0
DWIDTH 5 0
BBX 4 8 1 0
BITMAP
40
40
A0
40
E0
20
E0
F0
ENDCHAR
STARTCHAR 1EB4
ENCODING 7860
SWIDTH 600 0
DWIDTH 5 0
BBX 5 10 0 0
BITMAP
40
30
70
00
20
60
50
50
70
88
ENDCHAR
STARTCHAR 1EB5
ENCODING 7861
SWIDTH 600 0
DWIDTH 5 0
BBX 4 8 1 0
BITMAP
C0
20
A0
40
E0
20
E0
F0
ENDCHAR
STARTCHAR 1EB6
ENCODING 7862
SWIDTH 600 0
DWIDTH 5 0
BBX 5 10 0 -1
BITMAP
70
00
20
60
50
50
70
88
00
20
ENDCHAR
STARTCHAR 1EB7
ENCODING 7863
SWIDTH 600 0
DWIDTH 5 0
BBX 4 8 1 -2
BITMAP
A0
40
E0
20
E0
F0
00
40
ENDCHAR
STARTCHAR 1EB8
ENCODING 7864
SWIDTH 600 0
DWIDTH 5 0
BBX 4 8 1 -2
BITMAP
E0
80
E0
80
80
F0
00
40
ENDCHAR
STARTCHAR 1EB9
ENCODING 7865
SWIDTH 600 0
DWIDTH 5 0
BBX 3 6 1 -2
BITMAP
E0
A0
E0
E0
00
40
ENDCHAR
STARTCHAR 1EBA
ENCODING 7866
SWIDTH 600 0
DWIDTH 5 0
BBX 4 8 1 0
BITMAP
20
40
E0
80
E0
80
80
F0
ENDCHAR
STARTCHAR 1EBB
ENCODING 7867
SWIDTH 600 0
DWIDTH 5 0
BBX 3 6 1 0
BITMAP
60
40
E0
A0
E0
E0
ENDCHAR
STARTCHAR 1EBC
ENCODING 7868
SWIDTH 600 0
DWIDTH 5 0
BBX 4 8 1 1
BITMAP
E0
00
E0
80
E0
80
80
F0
ENDCHAR
STARTCHAR 1EBD
ENCODING 7869
SWIDTH 600 0
DWIDTH 5 0
BBX 3 6 1 1
BITMAP
E0
00
E0
A0
E0
E0
ENDCHAR
STARTCHAR 1EBE
ENCODING 7870
SWIDTH 600 0
DWIDTH 5 0
BBX 4 9 1 0
BITMAP
10
60
00
E0
80
E0
80
80
F0
ENDCHAR
STARTCHAR 1EBF
ENCODING 7871
SWIDTH 600 0
DWIDTH 5 0
BBX 4 7 1 0
BITMAP
10
40
20
E0
A0
E0
E0
ENDCHAR
STARTCHAR 1EC0
ENCODING 7872
SWIDTH 600 0
DWIDTH 5 0
BBX 4 9 1 0
BITMAP
20
60
00
E0
80
E0
80
80
F0
ENDCHAR
STARTCHAR 1EC1
ENCODING 7873
SWIDTH 600 0
DWIDTH 5 0
BBX 3 7 1 0
BITMAP
20
40
20
E0
A0
E0
E0
ENDCHAR
STARTCHAR 1EC2
ENCODING 7874
SWIDTH 600 0
DWIDTH 5 0
BBX 4 9 1 0
BITMAP
10
60
00
E0
80
E0
80
80
F0
ENDCHAR
STARTCHAR 1EC3
ENCODING 7875
SWIDTH 600 0
DWIDTH 5 0
BBX 4 7 1 0
BITMAP
10
40
20
E0
A0
E0
E0
ENDCHAR
STARTCHAR 1EC4
ENCODING 7876
SWIDTH 600 0
DWIDTH 5 0
BBX 4 10 1 0
BITMAP
40
20
60
00
E0
80
E0
80
80
F0
ENDCHAR
STARTCHAR 1EC5
ENCODING 7877
SWIDTH 600 0
DWIDTH 5 0
BBX 3 8 1 0
BITMAP
E0
A0
40
20
E0
A0
E0
E0
ENDCHAR
STARTCHAR 1EC6
ENCODING 7878
SWIDTH 600 0
DWIDTH 5 0
BBX 4 10 1 -2
BITMAP
60
00
E0
80
E0
80
80
F0
00
40
ENDCHAR
STARTCHAR 1EC7
ENCODING 7879
SWIDTH 600 0
DWIDTH 5 0
BBX 3 8 1 -2
BITMAP
60
00
E0
A0
E0
E0
00
40
ENDCHAR
STARTCHAR 1EC8
ENCODING 7880
SWIDTH 600 0
DWIDTH 5 0
BBX 2 8 2 0
BITMAP
40
80
80
80
80
80
80
80
ENDCHAR
STARTCHAR 1EC9
ENCODING 7881
SWIDTH 600 0
DWIDTH 5 0
BBX 3 6 1 0
BITMAP
20
40
C0
40
40
E0
ENDCHAR
STARTCHAR 1ECA
ENCODING 7882
SWIDTH 600 0
DWIDTH 5 0
BBX 1 8 2 -2
BITMAP
80
80
80
80
80
80
00
80
ENDCHAR
STARTCHAR 1ECB
ENCODING 7883
SWIDTH 600 0
DWIDTH 5 0
BBX 3 8 1 -2
BITMAP
40
00
C0
40
40
E0
00
40
ENDCHAR
STARTCHAR 1ECC
ENCODING 7884
SWIDTH 600 0
DWIDTH 5 0
BBX 5 8 0 -2
BITMAP
70
90
88
88
90
70
00
20
ENDCHAR
STARTCHAR 1ECD
ENCODING 7885
SWIDTH 600 0
DWIDTH 5 0
BBX 4 6 1 -2
BITMAP
E0
90
90
E0
00
40
ENDCHAR
STARTCHAR 1ECE
ENCODING 7886
SWIDTH 600 0
DWIDTH 5 0
BBX 5 8 0 0
BITMAP
10
20
70
90
88
88
90
70
ENDCHAR
STARTCHAR 1ECF
ENCODING 7887
SWIDTH 600 0
DWIDTH 5 0
BBX 4 6 1 0
BITMAP
40
00
E0
90
90
E0
ENDCHAR
STARTCHAR 1ED0
ENCODING 7888
SWIDTH 600 0
DWIDTH 5 0
BBX 5 9 0 0
BITMAP
08
20
50
70
90
88
88
90
70
ENDCHAR
STARTCHAR 1ED1
ENCODING 7889
SWIDTH 600 0
DWIDTH 5 0
BBX 4 7 1 0
BITMAP
10
40
20
E0
90
90
E0
ENDCHAR
STARTCHAR 1ED2
ENCODING 7890
SWIDTH 600 0
DWIDTH 5 0
BBX 5 9 0 0
BITMAP
10
20
50
70
90
88
88
90
70
ENDCHAR
STARTCHAR 1ED3
ENCODING 7891
SWIDTH 600 0
DWIDTH 5 0
BBX 4 7 1 0
BITMAP
20
40
20
E0
90
90
E0
ENDCHAR
STARTCHAR 1ED4
ENCODING 7892
SWIDTH 600 0
DWIDTH 5 0
BBX 5 9 0 0
BITMAP
08
30
50
70
90
88
88
90
70
ENDCHAR
STARTCHAR 1ED5
ENCODING 7893
SWIDTH 600 0
DWIDTH 5 0
BBX 4 7 1 0
BITMAP
10
60
20
E0
90
90
E0
ENDCHAR
STARTCHAR 1ED6
ENCODING 7894
SWIDTH 600 0
DWIDTH 5 0
BBX 5 10 0 0
BITMAP
20
50
20
50
70
90
88
88
90
70
ENDCHAR
STARTCHAR 1ED7
ENCODING 7895
SWIDTH 600 0
DWIDTH 5 0
BBX 4 8 1 0
BITMAP
E0
A0
40
20
E0
90
90
E0
ENDCHAR
STARTCHAR 1ED8
ENCODING 7896
SWIDTH 600 0
DWIDTH 5 0
BBX 5 10 0 -2
BITMAP
20
50
70
90
88
88
90
70
00
20
ENDCHAR
STARTCHAR 1ED9
ENCODING 7897
SWIDTH 600 0
DWIDTH 5 0
BBX 4 8 1 -2
BITMAP
C0
20
E0
90
90
E0
00
40
ENDCHAR
STARTCHAR 1EDA
ENCODING 7898
SWIDTH 600 0
DWIDTH 5 0
BBX 5 8 0 0
BITMAP
10
28
70
90
88
88
90
70
ENDCHAR
STARTCHAR 1EDB
ENCODING 7899
SWIDTH 600 0
DWIDTH 5 0
BBX 4 6 1 0
BITMAP
40
10
E0
90
90
E0
ENDCHAR
STARTCHAR 1EDC
ENCODING 7900
SWIDTH 600 0
DWIDTH 5 0
BBX 5 8 0 0
BITMAP
20
08
70
90
88
88
90
70
ENDCHAR
STARTCHAR 1EDD
ENCODING 7901
SWIDTH 600 0
DWIDTH 5 0
BBX 4 6 1 0
BITMAP
40
10
E0
90
90
E0
ENDCHAR
STARTCHAR 1EDE
ENCODING 7902
SWIDTH 600 0
DWIDTH 5 0
BBX 5 8 0 0
BITMAP
10
28
70
90
88
88
90
70
ENDCHAR
STARTCHAR 1EDF
ENCODING 7903
SWIDTH 600 0
DWIDTH 5 0
BBX 4 6 1 1
BITMAP
40
10
E0
90
90
E0
ENDCHAR
STARTCHAR 1EE0
ENCODING 7904
SWIDTH 600 0
DWIDTH 5 0
BBX 5 8 0 1
BITMAP
70
08
70
90
88
88
90
70
ENDCHAR
STARTCHAR 1EE1
ENCODING 7905
SWIDTH 600 0
DWIDTH 5 0
BBX 4 6 1 1
BITMAP
E0
10
E0
90
90
E0
ENDCHAR
STARTCHAR 1EE2
ENCODING 7906
SWIDTH 600 0
DWIDTH 5 0
BBX 5 9 0 -2
BITMAP
08
70
90
88
88
90
70
00
20
ENDCHAR
STARTCHAR 1EE3
ENCODING 7907
SWIDTH 600 0
DWIDTH 5 0
BBX 4 7 1 -2
BITMAP
10
E0
90
90
E0
00
40
ENDCHAR
STARTCHAR 1EE4
ENCODING 7908
SWIDTH 600 0
DWIDTH 5 0
BBX 3 8 1 -2
BITMAP
A0
A0
A0
A0
A0
E0
00
40
ENDCHAR
STARTCHAR 1EE5
ENCODING 7909
SWIDTH 600 0
DWIDTH 5 0
BBX 3 6 1 -2
BITMAP
A0
A0
A0
E0
00
40
ENDCHAR
STARTCHAR 1EE6
ENCODING 7910
SWIDTH 600 0
DWIDTH 5 0
BBX 3 8 1 0
BITMAP
20
40
A0
A0
A0
A0
A0
E0
ENDCHAR
STARTCHAR 1EE7
ENCODING 7911
SWIDTH 600 0
DWIDTH 5 0
BBX 3 6 1 0
BITMAP
40
00
A0
A0
A0
E0
ENDCHAR
STARTCHAR 1EE8
ENCODING 7912
SWIDTH 600 0
DWIDTH 5 0
BBX 5 8 1 0
BITMAP
20
48
B0
A0
A0
A0
A0
E0
ENDCHAR
STARTCHAR 1EE9
ENCODING 7913
SWIDTH 600 0
DWIDTH 5 0
BBX 4 6 1 0
BITMAP
20
40
B0
A0
A0
E0
ENDCHAR
STARTCHAR 1EEA
ENCODING 7914
SWIDTH 600 0
DWIDTH 5 0
BBX 5 8 1 0
BITMAP
80
48
B0
A0
A0
A0
A0
E0
ENDCHAR
STARTCHAR 1EEB
ENCODING 7915
SWIDTH 600 0
DWIDTH 5 0
BBX 4 6 1 0
BITMAP
40
00
B0
A0
A0
E0
ENDCHAR
STARTCHAR 1EEC
ENCODING 7916
SWIDTH 600 0
DWIDTH 5 0
BBX 5 8 1 0
BITMAP
20
48
B0
A0
A0
A0
A0
E0
ENDCHAR
STARTCHAR 1EED
ENCODING 7917
SWIDTH 600 0
DWIDTH 5 0
BBX 4 6 1 0
BITMAP
40
00
B0
A0
A0
E0
ENDCHAR
STARTCHAR 1EEE
ENCODING 7918
SWIDTH 600 0
DWIDTH 5 0
BBX 5 8 1 1
BITMAP
E0
08
B0
A0
A0
A0
A0
E0
ENDCHAR
STARTCHAR 1EEF
ENCODING 7919
SWIDTH 600 0
DWIDTH 5 0
BBX 4 6 1 1
BITMAP
E0
00
B0
A0
A0
E0
ENDCHAR
STARTCHAR 1EF0
ENCODING 7920
SWIDTH 600 0
DWIDTH 5 0
BBX 5 9 1 -2
BITMAP
08
B0
A0
A0
A0
A0
E0
00
40
ENDCHAR
STARTCHAR 1EF1
ENCODING 7921
SWIDTH 600 0
DWIDTH 5 0
BBX 4 6 1 -1
BITMAP
B0
A0
A0
E0
00
40
ENDCHAR
STARTCHAR 1EF2
ENCODING 7922
SWIDTH 600 0
DWIDTH 5 0
BBX 4 8 0 0
BITMAP
40
20
90
50
60
20
20
20
ENDCHAR
STARTCHAR 1EF3
ENCODING 7923
SWIDTH 600 0
DWIDTH 5 0
BBX 4 8 0 -2
BITMAP
20
00
90
50
50
20
20
C0
ENDCHAR
STARTCHAR 1EF4
ENCODING 7924
SWIDTH 600 0
DWIDTH 5 0
BBX 4 8 0 -2
BITMAP
90
50
60
20
20
20
00
20
ENDCHAR
STARTCHAR 1EF5
ENCODING 7925
SWIDTH 600 0
DWIDTH 5 0
BBX 4 6 0 -2
BITMAP
90
50
50
20
20
D0
ENDCHAR
STARTCHAR 1EF6
ENCODING 7926
SWIDTH 600 0
DWIDTH 5 0
BBX 4 8 0 0
BITMAP
10
20
90
50
60
20
20
20
ENDCHAR
STARTCHAR 1EF7
ENCODING 7927
SWIDTH 600 0
DWIDTH 5 0
BBX 4 8 0 -2
BITMAP
20
00
90
50
50
20
20
C0
ENDCHAR
STARTCHAR 1EF8
ENCODING 7928
SWIDTH 600 0
DWIDTH 5 0
BBX 4 8 0 1
BITMAP
70
00
90
50
60
20
20
20
ENDCHAR
STARTCHAR 1EF9
ENCODING 7929
SWIDTH 600 0
DWIDTH 5 0
BBX 4 8 0 -1
BITMAP
70
00
90
50
50
20
20
C0
ENDCHAR
STARTCHAR 2011
ENCODING 8209
SWIDTH 600 0
DWIDTH 5 0
BBX 3 1 1 2
BITMAP
E0
ENDCHAR
STARTCHAR 2013
ENCODING 8211
SWIDTH 600 0
DWIDTH 5 0
BBX 3 1 1 2
BITMAP
E0
ENDCHAR
STARTCHAR 2014
ENCODING 8212
SWIDTH 600 0
DWIDTH 5 0
BBX 5 1 0 2
BITMAP
F8
ENDCHAR
STARTCHAR 2015
ENCODING 8213
SWIDTH 600 0
DWIDTH 5 0
BBX 5 1 0 2
BITMAP
F8
ENDCHAR
STARTCHAR 2018
ENCODING 8216
SWIDTH 600 0
DWIDTH 5 0
BBX 1 2 2 4
BITMAP
80
80
ENDCHAR
STARTCHAR 2019
ENCODING 8217
SWIDTH 600 0
DWIDTH 5 0
BBX 1 2 2 4
BITMAP
80
80
ENDCHAR
STARTCHAR 201A
ENCODING 8218
SWIDTH 600 0
DWIDTH 5 0
BBX 1 2 2 -1
BITMAP
80
80
ENDCHAR
STARTCHAR 201C
ENCODING 8220
SWIDTH 600 0
DWIDTH 5 0
BBX 3 2 1 4
BITMAP
A0
A0
ENDCHAR
STARTCHAR 201D
ENCODING 8221
SWIDTH 600 0
DWIDTH 5 0
BBX 3 2 1 4
BITMAP
A0
A0
ENDCHAR
STARTCHAR 201E
ENCODING 8222
SWIDTH 600 0
DWIDTH 5 0
BBX 3 2 1 -1
BITMAP
A0
A0
ENDCHAR
STARTCHAR 2020
ENCODING 8224
SWIDTH 600 0
DWIDTH 5 0
BBX 3 6 1 0
BITMAP
40
E0
40
40
40
40
ENDCHAR
STARTCHAR 2021
ENCODING 8225
SWIDTH 600 0
DWIDTH 5 0
BBX 3 6 1 0
BITMAP
40
E0
40
40
E0
40
ENDCHAR
STARTCHAR 2022
ENCODING 8226
SWIDTH 600 0
DWIDTH 5 0
BBX 3 2 1 2
BITMAP
60
E0
ENDCHAR
STARTCHAR 2025
ENCODING 8229
SWIDTH 600 0
DWIDTH 5 0
BBX 3 1 1 0
BITMAP
A0
ENDCHAR
STARTCHAR 2026
ENCODING 8230
SWIDTH 600 0
DWIDTH 5 0
BBX 5 1 0 0
BITMAP
A8
ENDCHAR
STARTCHAR 2039
ENCODING 8249
SWIDTH 600 0
DWIDTH 5 0
BBX 2 4 2 0
BITMAP
40
80
80
40
ENDCHAR
STARTCHAR 203A
ENCODING 8250
SWIDTH 600 0
DWIDTH 5 0
BBX 3 4 1 0
BITMAP
80
60
60
80
ENDCHAR
STARTCHAR 2044
ENCODING 8260
SWIDTH 600 0
DWIDTH 5 0
BBX 5 6 0 0
BITMAP
08
10
20
40
40
80
ENDCHAR
STARTCHAR 2070
ENCODING 8304
SWIDTH 600 0
DWIDTH 5 0
BBX 3 3 1 3
BITMAP
E0
E0
E0
ENDCHAR
STARTCHAR 2074
ENCODING 8308
SWIDTH 600 0
DWIDTH 5 0
BBX 2 3 1 3
BITMAP
40
C0
40
ENDCHAR
STARTCHAR 2075
ENCODING 8309
SWIDTH 600 0
DWIDTH 5 0
BBX 3 4 1 2
BITMAP
40
E0
20
40
ENDCHAR
STARTCHAR 2076
ENCODING 8310
SWIDTH 600 0
DWIDTH 5 0
BBX 3 3 1 3
BITMAP
40
A0
E0
ENDCHAR
STARTCHAR 2077
ENCODING 8311
SWIDTH 600 0
DWIDTH 5 0
BBX 2 3 2 3
BITMAP
C0
80
80
ENDCHAR
STARTCHAR 2078
ENCODING 8312
SWIDTH 600 0
DWIDTH 5 0
BBX 3 3 1 3
BITMAP
E0
C0
E0
ENDCHAR
STARTCHAR 2079
ENCODING 8313
SWIDTH 600 0
DWIDTH 5 0
BBX 3 3 1 3
BITMAP
E0
A0
40
ENDCHAR
STARTCHAR 2080
ENCODING 8320
SWIDTH 600 0
DWIDTH 5 0
BBX 3 3 1 -2
BITMAP
E0
E0
E0
ENDCHAR
STARTCHAR 2081
ENCODING 8321
SWIDTH 600 0
DWIDTH 5 0
BBX 1 3 2 -2
BITMAP
80
80
80
ENDCHAR
STARTCHAR 2082
ENCODING 8322
SWIDTH 600 0
DWIDTH 5 0
BBX 3 3 1 -2
BITMAP
60
40
C0
ENDCHAR
STARTCHAR 2083
ENCODING 8323
SWIDTH 600 0
DWIDTH 5 0
BBX 2 3 2 -2
BITMAP
80
40
C0
ENDCHAR
STARTCHAR 2084
ENCODING 8324
SWIDTH 600 0
DWIDTH 5 0
BBX 2 3 1 -2
BITMAP
40
C0
40
ENDCHAR
STARTCHAR 2085
ENCODING 8325
SWIDTH 600 0
DWIDTH 5 0
BBX 3 3 1 -2
BITMAP
40
E0
40
ENDCHAR
STARTCHAR 2086
ENCODING 8326
SWIDTH 600 0
DWIDTH 5 0
BBX 3 3 1 -2
BITMAP
40
A0
E0
ENDCHAR
STARTCHAR 2087
ENCODING 8327
SWIDTH 600 0
DWIDTH 5 0
BBX 1 3 2 -2
BITMAP
80
80
80
ENDCHAR
STARTCHAR 2088
ENCODING 8328
SWIDTH 600 0
DWIDTH 5 0
BBX 3 3 1 -2
BITMAP
E0
E0
E0
ENDCHAR
STARTCHAR 2089
ENCODING 8329
SWIDTH 600 0
DWIDTH 5 0
BBX 3 3 1 -2
BITMAP
E0
A0
40
ENDCHAR
STARTCHAR 20A6
ENCODING 8358
SWIDTH 600 0
DWIDTH 5 0
BBX 4 6 0 0
BITMAP
D0
D0
B0
B0
F0
90
ENDCHAR
STARTCHAR 20A9
ENCODING 8361
SWIDTH 600 0
DWIDTH 5 0
BBX 4 5 0 1
BITMAP
B0
F0
F0
F0
50
ENDCHAR
STARTCHAR 20AB
ENCODING 8363
SWIDTH 600 0
DWIDTH 5 0
BBX 4 7 0 -1
BITMAP
10
10
70
90
90
70
20
ENDCHAR
STARTCHAR 20AC
ENCODING 8364
SWIDTH 600 0
DWIDTH 5 0
BBX 4 6 1 0
BITMAP
70
80
C0
80
C0
70
ENDCHAR
STARTCHAR 20B1
ENCODING 8369
SWIDTH 600 0
DWIDTH 5 0
BBX 3 6 1 0
BITMAP
E0
A0
A0
E0
80
80
ENDCHAR
STARTCHAR 20B9
ENCODING 8377
SWIDTH 600 0
DWIDTH 5 0
BBX 4 6 1 0
BITMAP
60
20
F0
C0
80
60
ENDCHAR
STARTCHAR 20BA
ENCODING 8378
SWIDTH 600 0
DWIDTH 5 0
BBX 5 6 0 0
BITMAP
40
60
40
68
C8
70
ENDCHAR
STARTCHAR 20BD
ENCODING 8381
SWIDTH 600 0
DWIDTH 5 0
BBX 4 6 1 0
BITMAP
E0
90
90
E0
80
C0
ENDCHAR
STARTCHAR 2117
ENCODING 8471
SWIDTH 600 0
DWIDTH 5 0
BBX 5 6 0 0
BITMAP
70
90
F8
D8
E8
F0
ENDCHAR
STARTCHAR 2120
ENCODING 8480
SWIDTH 600 0
DWIDTH 5 0
BBX 5 3 0 3
BITMAP
A8
58
48
ENDCHAR
STARTCHAR 2122
ENCODING 8482
SWIDTH 600 0
DWIDTH 5 0
BBX 5 3 0 3
BITMAP
A8
98
08
ENDCHAR
STARTCHAR 2153
ENCODING 8531
SWIDTH 600 0
DWIDTH 5 0
BBX 5 8 0 -2
BITMAP
C0
40
48
30
40
90
08
18
ENDCHAR
STARTCHAR 2154
ENCODING 8532
SWIDTH 600 0
DWIDTH 5 0
BBX 5 8 0 -2
BITMAP
C0
40
88
70
40
90
08
18
ENDCHAR
STARTCHAR 2155
ENCODING 8533
SWIDTH 600 0
DWIDTH 5 0
BBX 5 8 0 -2
BITMAP
C0
40
48
30
40
90
18
18
ENDCHAR
STARTCHAR 2156
ENCODING 8534
SWIDTH 600 0
DWIDTH 5 0
BBX 5 8 0 -2
BITMAP
C0
40
88
70
40
90
18
18
ENDCHAR
STARTCHAR 2157
ENCODING 8535
SWIDTH 600 0
DWIDTH 5 0
BBX 5 8 0 -2
BITMAP
40
40
28
70
40
90
18
18
ENDCHAR
STARTCHAR 2158
ENCODING 8536
SWIDTH 600 0
DWIDTH 5 0
BBX 5 8 0 -2
BITMAP
40
C0
58
20
40
90
18
18
ENDCHAR
STARTCHAR 2159
ENCODING 8537
SWIDTH 600 0
DWIDTH 5 0
BBX 5 8 0 -2
BITMAP
C0
40
48
30
40
B0
38
30
ENDCHAR
STARTCHAR 215A
ENCODING 8538
SWIDTH 600 0
DWIDTH 5 0
BBX 5 8 0 -2
BITMAP
80
C0
38
60
40
B0
38
30
ENDCHAR
STARTCHAR 215B
ENCODING 8539
SWIDTH 600 0
DWIDTH 5 0
BBX 5 8 0 -2
BITMAP
C0
40
48
30
40
B8
28
38
ENDCHAR
STARTCHAR 215C
ENCODING 8540
SWIDTH 600 0
DWIDTH 5 0
BBX 5 8 0 -2
BITMAP
40
40
28
50
60
B8
28
38
ENDCHAR
STARTCHAR 215D
ENCODING 8541
SWIDTH 600 0
DWIDTH 5 0
BBX 5 8 0 -2
BITMAP
80
C0
38
60
40
B8
28
38
ENDCHAR
STARTCHAR 215E
ENCODING 8542
SWIDTH 600 0
DWIDTH 5 0
BBX 5 8 0 -2
BITMAP
60
40
48
10
60
B8
28
38
ENDCHAR
STARTCHAR 2212
ENCODING 8722
SWIDTH 600 0
DWIDTH 5 0
BBX 4 1 1 2
BITMAP
F0
ENDCHAR
STARTCHAR 2248
ENCODING 8776
SWIDTH 600 0
DWIDTH 5 0
BBX 5 5 0 0
BITMAP
68
90
40
B0
90
ENDCHAR
STARTCHAR 2260
ENCODING 8800
SWIDTH 600 0
DWIDTH 5 0
BBX 3 5 1 0
BITMAP
20
E0
40
E0
80
ENDCHAR
STARTCHAR 2264
ENCODING 8804
SWIDTH 600 0
DWIDTH 5 0
BBX 3 6 1 0
BITMAP
20
40
80
60
00
E0
ENDCHAR
STARTCHAR 2265
ENCODING 8805
SWIDTH 600 0
DWIDTH 5 0
BBX 3 6 1 0
BITMAP
80
40
20
C0
00
E0
ENDCHAR
STARTCHAR A788
ENCODING 42888
SWIDTH 600 0
DWIDTH 5 0
BBX 3 1 1 -2
BITMAP
E0
ENDCHAR
ENDFONT
